<svg xmlns="http://www.w3.org/2000/svg" version="1.1" xmlns:xlink="http://www.w3.org/1999/xlink" xmlns:svgjs="http://svgjs.dev/svgjs" width="1500" height="1500" viewBox="0 0 1500 1500"><rect width="1500" height="1500" fill="#ffffff"></rect><g transform="matrix(0.6666666666666666,0,0,0.6666666666666666,250.10666666666668,533.1094206666668)"><svg viewBox="0 0 375 163" data-background-color="#ffffff" preserveAspectRatio="xMidYMid meet" height="652" width="1500" xmlns="http://www.w3.org/2000/svg" xmlns:xlink="http://www.w3.org/1999/xlink"><g id="tight-bounds" transform="matrix(1,0,0,1,-0.03976000000000113,-0.16570275000002255)"><svg viewBox="0 0 375.07953 163.3317355" height="163.3317355" width="375.07953"><g><svg></svg></g><g><svg viewBox="0 0 375.07953 163.3317355" height="163.3317355" width="375.07953"><g transform="matrix(1,0,0,1,-10.22024,-49.25032999999999)"><path d="M10.22 197.95v-148.7h375.08v148.7h-20.413l0-5.35h15.063v-138h-364.38v138l86.131 0 0 5.35z" fill="#007e02" fill-rule="nonzero" stroke="none" stroke-width="1" stroke-linecap="butt" stroke-linejoin="miter" stroke-miterlimit="10" stroke-dasharray="" stroke-dashoffset="0" font-family="none" font-weight="none" font-size="none" text-anchor="none" style="mix-blend-mode: normal" data-fill-palette-color="tertiary"></path><g><path transform="translate(113.92583,201.85419) scale(0.64821,0.64821)" d="M16.95-1.95v0c-0.4 0-0.6-0.1-0.6-0.3v0c0-0.2 0.017-0.333 0.05-0.4v0c0.033-0.267 0.1-0.56 0.2-0.88 0.1-0.313 0.217-0.687 0.35-1.12v0l0.7-1.95c0.467-1.633 0.867-3.267 1.2-4.9 0.333-1.633 0.6-3.267 0.8-4.9v0l-6.55 0.35c-1.333 0.067-2.543 0.117-3.63 0.15-1.08 0.033-2.037 0.05-2.87 0.05v0c-0.4 0-0.6-0.283-0.6-0.85v0c0-0.567 0.217-0.9 0.65-1v0c0.6-0.167 5-0.317 13.2-0.45v0c0.067-0.833 0.127-1.743 0.18-2.73 0.047-0.98 0.07-2.053 0.07-3.22v0-2.3c-2.533 0.067-4.94 0.123-7.22 0.17-2.287 0.053-4.447 0.08-6.48 0.08v0c-0.333 0-0.5-0.217-0.5-0.65v0c0-0.767 0.283-1.15 0.85-1.15v0c2.967 0 5.55 0 7.75 0 2.2 0 4.033-0.017 5.5-0.05v0c-0.033-0.333-0.09-0.833-0.17-1.5-0.087-0.667-0.213-1.517-0.38-2.55v0c-0.133-0.9-0.233-1.65-0.3-2.25-0.067-0.6-0.1-1.067-0.1-1.4v0c0-0.6 0.383-0.9 1.15-0.9v0c0.4 0 0.617 0.15 0.65 0.45v0c0.067 0.5 0.133 1.083 0.2 1.75 0.067 0.667 0.117 1.433 0.15 2.3v0c0.067 1.2 0.11 2.133 0.13 2.8 0.013 0.667 0.037 1.083 0.07 1.25v0l8.95-0.1c0.033-1.8 0.06-3.377 0.08-4.73 0.013-1.347 0.02-2.47 0.02-3.37v0c0-0.433 0.283-0.65 0.85-0.65v0c0.533 0 0.8 0.2 0.8 0.6v0c0 0.933-0.017 2.073-0.05 3.42-0.033 1.353-0.083 2.93-0.15 4.73v0c2.867-0.033 5.377-0.06 7.53-0.08 2.147-0.013 3.937-0.02 5.37-0.02v0c0.4 0 0.6 0.2 0.6 0.6v0c0 0.433-0.2 0.65-0.6 0.65v0c-1.433 0-3.223 0.017-5.37 0.05-2.153 0.033-4.68 0.083-7.58 0.15v0l-0.15 8.3v0.35c1.833 0.033 3.46 0.06 4.88 0.08 1.413 0.013 2.62 0.053 3.62 0.12v0c3.633 0.2 6.417 0.55 8.35 1.05v0c0.333 0.1 0.5 0.3 0.5 0.6v0c0 0.4-0.233 0.6-0.7 0.6v0c-0.8 0-1.933-0.1-3.4-0.3v0c-0.867-0.133-1.59-0.227-2.17-0.28-0.587-0.047-1.03-0.087-1.33-0.12v0c-2.833-0.2-6.083-0.3-9.75-0.3v0c0.033 1.467 0.093 2.873 0.18 4.22 0.08 1.353 0.187 2.647 0.32 3.88v0c0.033 0.133 0.077 0.373 0.13 0.72 0.047 0.353 0.137 0.797 0.27 1.33v0c0.067 0.433 0.123 0.823 0.17 1.17 0.053 0.353 0.08 0.647 0.08 0.88v0c0 0.5-0.2 0.75-0.6 0.75v0c-0.367 0-0.567-0.167-0.6-0.5v0c-0.733-2.367-1.167-6.517-1.3-12.45v0c-2 0.033-3.75 0.067-5.25 0.1-1.5 0.033-2.767 0.067-3.8 0.1v0c-0.1 0.933-0.29 2.073-0.57 3.42-0.287 1.353-0.663 2.913-1.13 4.68v0c-1.1 4.3-1.983 6.45-2.65 6.45zM21.5-18.2v0h8.8v-2.2c0-0.867 0-1.827 0-2.88 0-1.047 0.017-2.203 0.05-3.47v0l-8.85 0.3c0.033 0.933 0.06 1.8 0.08 2.6 0.013 0.8 0.02 1.533 0.02 2.2v0c0 0.7-0.007 1.333-0.02 1.9-0.02 0.567-0.047 1.083-0.08 1.55zM51.1 1.55v0c-1.433 0-2.59-0.433-3.47-1.3-0.887-0.867-1.33-2.017-1.33-3.45v0c0-1.033 0.217-2.083 0.65-3.15 0.433-1.067 0.993-2.077 1.68-3.03 0.68-0.947 1.387-1.737 2.12-2.37v0c0.567-0.533 1.067-0.8 1.5-0.8v0c0.433 0 0.65 0.217 0.65 0.65v0c0 0.4-0.283 0.85-0.85 1.35v0c-1.133 0.967-2.067 2.15-2.8 3.55-0.733 1.4-1.1 2.7-1.1 3.9v0c0 1.9 1.017 2.85 3.05 2.85v0c1.2 0 2.41-0.4 3.63-1.2 1.213-0.8 2.42-1.86 3.62-3.18 1.2-1.313 2.36-2.787 3.48-4.42 1.113-1.633 2.17-3.267 3.17-4.9v0c4.433-7.167 7.383-13.1 8.85-17.8v0c-0.433 0.033-1.09 0.167-1.97 0.4-0.887 0.233-1.997 0.567-3.33 1v0c-1.267 0.4-2.217 0.707-2.85 0.92-0.633 0.22-1.067 0.33-1.3 0.33v0c-0.633 0-0.95-0.283-0.95-0.85v0c0-0.3 0.217-0.583 0.65-0.85v0c0.7-0.433 1.627-0.84 2.78-1.22 1.147-0.387 2.453-0.713 3.92-0.98v0c2.567-0.5 5.033-0.75 7.4-0.75v0c0.967 0 1.95 0.05 2.95 0.15 1 0.1 1.8 0.217 2.4 0.35v0c0.567 0.1 0.85 0.383 0.85 0.85v0c0 0.5-0.233 0.75-0.7 0.75v0c-0.133 0-0.65-0.077-1.55-0.23-0.9-0.147-2.1-0.22-3.6-0.22v0c-1.033 0-2.083 0.05-3.15 0.15v0c0.133 0.133 0.2 0.3 0.2 0.5v0c0 0.1-0.057 0.307-0.17 0.62-0.12 0.32-0.23 0.613-0.33 0.88v0c-0.867 2.433-1.957 4.957-3.27 7.57-1.32 2.62-2.847 5.363-4.58 8.23v0c-1.2 1.967-2.45 3.883-3.75 5.75-1.3 1.867-2.64 3.55-4.02 5.05-1.387 1.5-2.787 2.693-4.2 3.58-1.42 0.88-2.847 1.32-4.28 1.32zM85.45 1.7v0c-1.633 0-2.45-1.183-2.45-3.55v0c0-1.267 0.3-2.8 0.9-4.6v0c-4.033 4.7-7.2 7.05-9.5 7.05v0c-1.9 0-2.85-1.15-2.85-3.45v0c0-0.867 0.14-1.91 0.42-3.13 0.287-1.213 0.673-2.47 1.16-3.77 0.48-1.3 1.003-2.517 1.57-3.65 0.567-1.133 1.133-2.05 1.7-2.75v0c0.2-0.233 0.45-0.35 0.75-0.35v0c0.167 0 0.333 0.06 0.5 0.18 0.167 0.113 0.25 0.287 0.25 0.52v0c0 0.2-0.117 0.483-0.35 0.85v0c-1.5 2.467-2.567 4.617-3.2 6.45v0c-0.8 2.1-1.2 3.917-1.2 5.45v0c0 1.433 0.367 2.15 1.1 2.15v0c0.467 0 1.083-0.233 1.85-0.7 0.767-0.467 1.557-1.043 2.37-1.73 0.82-0.68 1.53-1.32 2.13-1.92v0c1.667-1.767 3.167-3.65 4.5-5.65v0c0.6-0.933 1.14-1.843 1.62-2.73 0.487-0.88 0.93-1.803 1.33-2.77v0c0.167-0.367 0.307-0.643 0.42-0.83 0.12-0.18 0.297-0.27 0.53-0.27v0c0.7 0 1.05 0.267 1.05 0.8v0c0 0.333-0.117 0.567-0.35 0.7v0c-3.4 6.9-5.1 11.65-5.1 14.25v0c0 0.7 0.067 1.19 0.2 1.47 0.133 0.287 0.367 0.43 0.7 0.43v0c0.467 0 1.19-0.3 2.17-0.9 0.987-0.6 2.147-1.517 3.48-2.75v0l5.25-4.8c0.267-0.267 0.517-0.4 0.75-0.4v0c0.533 0 0.8 0.25 0.8 0.75v0c0 0.433-1.05 1.6-3.15 3.5v0c-0.9 0.833-1.7 1.533-2.4 2.1-0.7 0.567-1.35 1.067-1.95 1.5v0c-1.133 0.8-2.133 1.427-3 1.88-0.867 0.447-1.533 0.67-2 0.67zM95.95 1.65v0c-1.867 0-2.8-0.617-2.8-1.85v0c0-0.767 0.277-1.533 0.83-2.3 0.547-0.767 1.203-1.467 1.97-2.1 0.767-0.633 1.483-1.117 2.15-1.45v0c0.2-0.1 0.473-0.2 0.82-0.3 0.353-0.1 0.647-0.15 0.88-0.15v0c0.267 0 0.4 0.1 0.4 0.3v0c0 0.167-0.183 0.35-0.55 0.55v0c-1.533 0.733-2.723 1.607-3.57 2.62-0.853 1.02-1.28 1.847-1.28 2.48v0c0 0.6 0.517 0.9 1.55 0.9v0c0.867 0 1.807-0.217 2.82-0.65 1.02-0.433 1.99-1 2.91-1.7 0.913-0.7 1.67-1.45 2.27-2.25 0.6-0.8 0.9-1.567 0.9-2.3v0c0-0.5-0.157-0.95-0.47-1.35-0.32-0.4-0.83-0.7-1.53-0.9v0l-3.3-1c-0.833-0.267-1.433-0.617-1.8-1.05-0.367-0.433-0.55-0.917-0.55-1.45v0c0-1 0.377-1.9 1.13-2.7 0.747-0.8 1.687-1.433 2.82-1.9 1.133-0.467 2.233-0.7 3.3-0.7v0c1.067 0 2 0.26 2.8 0.78 0.8 0.513 1.2 1.203 1.2 2.07v0c0 0.5-0.14 0.967-0.42 1.4-0.287 0.433-0.613 0.65-0.98 0.65v0c-0.567 0-0.85-0.233-0.85-0.7v0c0-0.167 0.093-0.377 0.28-0.63 0.18-0.247 0.27-0.487 0.27-0.72v0c0-1-0.767-1.5-2.3-1.5v0c-0.833 0-1.657 0.173-2.47 0.52-0.82 0.353-1.497 0.813-2.03 1.38-0.533 0.567-0.8 1.183-0.8 1.85v0c0 0.667 0.667 1.2 2 1.6v0l3.2 1c0.967 0.3 1.633 0.707 2 1.22 0.367 0.52 0.55 1.097 0.55 1.73v0c0 1.5-0.917 3.05-2.75 4.65v0c-2.967 2.633-5.833 3.95-8.6 3.95zM110.5 3.45v0c-0.633 0-0.95-0.5-0.95-1.5v0c0-1.467 0.827-4.033 2.48-7.7 1.647-3.667 4.103-8.467 7.37-14.4v0c-1.267 0-2.457 0.157-3.57 0.47-1.12 0.32-1.713 0.713-1.78 1.18v0c-0.033 0.133-0.107 0.257-0.22 0.37-0.12 0.12-0.297 0.18-0.53 0.18v0c-0.533 0-0.8-0.267-0.8-0.8v0c0-0.867 0.683-1.583 2.05-2.15 1.367-0.567 3.283-0.85 5.75-0.85v0l3.45-5.7c0.233-0.367 0.483-0.777 0.75-1.23 0.267-0.447 0.567-0.937 0.9-1.47v0c0.333-0.467 0.717-0.7 1.15-0.7v0c0.267 0 0.467 0.073 0.6 0.22 0.133 0.153 0.2 0.313 0.2 0.48v0c0 0.5-0.733 1.833-2.2 4v0c-1.833 2.7-2.817 4.167-2.95 4.4v0c0.5 0 1.25 0.04 2.25 0.12 1 0.087 2.183 0.213 3.55 0.38v0c0.5 0.033 0.75 0.283 0.75 0.75v0c0 0.533-0.3 0.8-0.9 0.8v0c-0.233 0-0.7-0.043-1.4-0.13-0.7-0.08-1.45-0.153-2.25-0.22-0.8-0.067-1.483-0.083-2.05-0.05v0l-0.75 0.05c-6.767 11.9-10.133 19.3-10.1 22.2v0l0.05 0.4v0.1c0 0.533-0.283 0.8-0.85 0.8zM121.4 1.55v0c-0.567 0-0.85-0.417-0.85-1.25v0c0-1.267 0.633-3.443 1.9-6.53 1.267-3.08 3.183-7.037 5.75-11.87v0c1.467-2.733 2.667-5 3.6-6.8 0.933-1.8 1.667-3.243 2.2-4.33 0.533-1.08 0.917-1.897 1.15-2.45 0.233-0.547 0.367-0.953 0.4-1.22v0c0-0.133 0.033-0.233 0.1-0.3v0l-1.95-0.1c-0.433-0.033-0.76-0.15-0.98-0.35-0.213-0.2-0.32-0.417-0.32-0.65v0c0-0.467 0.267-0.7 0.8-0.7v0c7.267 0 13.567 1.5 18.9 4.5v0c2.767 1.567 5.05 3.523 6.85 5.87 1.8 2.353 2.7 5.013 2.7 7.98v0c0 2.4-0.667 4.467-2 6.2-1.333 1.733-3.14 3.233-5.42 4.5-2.287 1.267-4.863 2.4-7.73 3.4v0c-1.933 0.667-4.083 1.307-6.45 1.92-2.367 0.62-4.683 1.113-6.95 1.48-2.267 0.367-4.267 0.55-6 0.55v0c-1.2 0-2.133-0.167-2.8-0.5v0c-0.7-0.367-1.05-0.767-1.05-1.2v0c0-0.367 0.2-0.55 0.6-0.55v0c0.267 0 0.517 0.05 0.75 0.15 0.233 0.1 0.567 0.2 1 0.3 0.433 0.1 1.067 0.15 1.9 0.15v0c1.2 0 2.56-0.11 4.08-0.33 1.513-0.213 3.097-0.503 4.75-0.87 1.647-0.367 3.253-0.777 4.82-1.23 1.567-0.447 3-0.887 4.3-1.32v0c2.8-0.967 5.293-2.033 7.48-3.2 2.18-1.167 3.887-2.55 5.12-4.15 1.233-1.6 1.85-3.533 1.85-5.8v0c0-4.767-2.783-8.733-8.35-11.9v0c-3.7-2.067-8.517-3.417-14.45-4.05v0c0.133 0.167 0.2 0.35 0.2 0.55v0c0 0.3-0.24 0.983-0.72 2.05-0.487 1.067-1.12 2.35-1.9 3.85-0.787 1.5-1.613 3.083-2.48 4.75-0.867 1.667-1.7 3.233-2.5 4.7v0c-5.033 9.633-7.55 15.433-7.55 17.4v0c0 0.133 0.01 0.233 0.03 0.3 0.013 0.067 0.02 0.167 0.02 0.3v0c0 0.167-0.067 0.333-0.2 0.5-0.133 0.167-0.333 0.25-0.6 0.25zM174.65-19.7v0c-0.567 0-0.85-0.283-0.85-0.85v0c0-0.167 0.117-0.477 0.35-0.93 0.233-0.447 0.5-0.903 0.8-1.37 0.3-0.467 0.533-0.783 0.7-0.95v0c0.567-0.633 1.007-1.033 1.32-1.2 0.32-0.167 0.613-0.25 0.88-0.25v0c0.7 0 1.05 0.317 1.05 0.95v0c0 0.233-0.143 0.507-0.43 0.82-0.28 0.32-0.603 0.613-0.97 0.88v0c-0.533 0.333-0.867 0.6-1 0.8v0l-1.1 1.55c-0.033 0.133-0.107 0.257-0.22 0.37-0.12 0.12-0.297 0.18-0.53 0.18zM166.15 0.55v0c-0.933 0-1.607-0.183-2.02-0.55-0.42-0.367-0.63-0.917-0.63-1.65v0c0-0.7 0.217-1.66 0.65-2.88 0.433-1.213 0.993-2.52 1.68-3.92 0.68-1.4 1.403-2.733 2.17-4 0.767-1.267 1.507-2.31 2.22-3.13 0.72-0.813 1.297-1.22 1.73-1.22v0c0.6 0 0.9 0.267 0.9 0.8v0c0 0.333-0.283 0.967-0.85 1.9-0.567 0.933-1.183 1.9-1.85 2.9v0c-0.267 0.367-0.633 0.867-1.1 1.5-0.467 0.633-0.917 1.223-1.35 1.77-0.433 0.553-0.717 0.93-0.85 1.13v0c-0.333 0.5-0.683 1.317-1.05 2.45v0c-0.4 1.133-0.6 2-0.6 2.6v0c0 0.267 0.06 0.467 0.18 0.6 0.113 0.133 0.387 0.2 0.82 0.2v0c0.833 0 1.767-0.267 2.8-0.8 1.033-0.533 2.083-1.21 3.15-2.03 1.067-0.813 2.077-1.653 3.03-2.52 0.947-0.867 1.753-1.617 2.42-2.25v0c0.133-0.133 0.333-0.2 0.6-0.2v0c0.5 0 0.75 0.2 0.75 0.6v0c0 0.367-0.233 0.783-0.7 1.25v0c-0.9 0.9-1.733 1.7-2.5 2.4-0.767 0.7-1.5 1.317-2.2 1.85v0c-1.1 0.8-2.317 1.533-3.65 2.2-1.333 0.667-2.583 1-3.75 1zM181.55 1.35v0c-1.533 0-2.707-0.477-3.52-1.43-0.82-0.947-1.23-2.203-1.23-3.77v0c0-1.133 0.2-2.5 0.6-4.1v0c0.7-2.7 1.883-5.833 3.55-9.4v0c1.3-2.7 2.7-5.36 4.2-7.98 1.5-2.613 3.15-5.187 4.95-7.72v0c2.867-4.067 4.867-6.1 6-6.1v0c0.733 0 1.1 0.2 1.1 0.6v0c0 0.567-0.933 1.983-2.8 4.25v0l-3.5 4.25c-3.033 3.667-5.51 7.417-7.43 11.25-1.913 3.833-3.403 7.667-4.47 11.5v0c-0.3 1.1-0.45 2.133-0.45 3.1v0c0 2.533 1.033 3.8 3.1 3.8v0c0.733 0 1.483-0.217 2.25-0.65v0c0.767-0.4 1.183-0.6 1.25-0.6v0c0.4 0 0.6 0.283 0.6 0.85v0c0 0.5-0.183 0.883-0.55 1.15v0c-1.133 0.667-2.35 1-3.65 1zM198.45 2.15v0c-2.133 0-4.14-0.35-6.02-1.05-1.887-0.7-3.413-1.7-4.58-3-1.167-1.3-1.75-2.833-1.75-4.6v0c0-0.567 0.1-1.167 0.3-1.8v0c0.267-0.867 0.567-1.3 0.9-1.3v0c0.5 0 0.75 0.283 0.75 0.85v0c0 0.233-0.067 0.55-0.2 0.95v0c-0.133 0.4-0.2 0.783-0.2 1.15v0c0 1.467 0.5 2.74 1.5 3.82 1 1.087 2.293 1.913 3.88 2.48 1.58 0.567 3.237 0.85 4.97 0.85v0c3.767 0 6.967-0.9 9.6-2.7v0c1.367-0.933 2.5-2.06 3.4-3.38 0.9-1.313 1.35-2.72 1.35-4.22v0c0-1.367-0.343-2.5-1.03-3.4-0.68-0.9-1.62-1.677-2.82-2.33-1.2-0.647-2.583-1.237-4.15-1.77v0c-4.467-1.567-6.7-3.467-6.7-5.7v0c0-1.2 0.45-2.35 1.35-3.45 0.9-1.1 2-2.077 3.3-2.93 1.3-0.847 2.55-1.487 3.75-1.92v0c1.767-0.667 3.407-1.127 4.92-1.38 1.52-0.247 2.93-0.37 4.23-0.37v0c1.767 0 3.017 0.407 3.75 1.22 0.733 0.82 1.1 1.83 1.1 3.03v0c0 0.933-0.223 1.833-0.67 2.7-0.453 0.867-1.063 1.617-1.83 2.25v0c-0.867 0.733-1.567 1.1-2.1 1.1v0c-0.567 0-0.85-0.267-0.85-0.8v0c0-0.3 0.15-0.517 0.45-0.65v0c2.233-1.133 3.35-2.683 3.35-4.65v0c0-0.867-0.24-1.51-0.72-1.93-0.487-0.413-1.313-0.62-2.48-0.62v0c-1.067 0-2.257 0.117-3.57 0.35-1.32 0.233-2.663 0.583-4.03 1.05v0c-1.2 0.433-2.417 1.017-3.65 1.75-1.233 0.733-2.257 1.533-3.07 2.4-0.82 0.867-1.23 1.733-1.23 2.6v0c0 1.833 1.767 3.3 5.3 4.4v0c6.1 1.933 9.15 4.9 9.15 8.9v0c0 1.2-0.273 2.383-0.82 3.55-0.553 1.167-1.27 2.233-2.15 3.2-0.887 0.967-1.83 1.8-2.83 2.5v0c-1.433 1-2.99 1.727-4.67 2.18-1.687 0.447-3.413 0.67-5.18 0.67zM222.3 0.9v0c-1.4 0-2.5-0.483-3.3-1.45-0.8-0.967-1.2-2.15-1.2-3.55v0c0-2.4 0.8-4.867 2.4-7.4v0c0.433-0.7 0.933-1.393 1.5-2.08 0.567-0.68 1.183-1.337 1.85-1.97v0c1-0.967 2.05-1.767 3.15-2.4 1.1-0.633 2.167-0.95 3.2-0.95v0c1.7 0 2.55 0.8 2.55 2.4v0c0 2-1.167 3.817-3.5 5.45v0c-2.167 1.467-4.3 2.2-6.4 2.2v0c-0.367 0-0.69-0.027-0.97-0.08-0.287-0.047-0.547-0.103-0.78-0.17v0c-0.333 0.633-0.633 1.45-0.9 2.45-0.267 1-0.4 1.867-0.4 2.6v0c0 2.2 0.967 3.3 2.9 3.3v0c1.567 0 3.05-0.277 4.45-0.83 1.4-0.547 3.067-1.587 5-3.12v0c1.2-0.933 2.1-1.683 2.7-2.25 0.6-0.567 1.25-1.167 1.95-1.8v0c0.2-0.133 0.383-0.2 0.55-0.2v0c0.167 0 0.333 0.05 0.5 0.15 0.167 0.1 0.25 0.25 0.25 0.45v0c0 0.367-0.333 0.883-1 1.55v0c-0.567 0.533-1.167 1.09-1.8 1.67-0.633 0.587-1.633 1.397-3 2.43v0c-1.467 1.133-3.067 2.017-4.8 2.65-1.733 0.633-3.367 0.95-4.9 0.95zM222.25-10.45v0c1.067 0 2.083-0.167 3.05-0.5 0.967-0.333 1.883-0.817 2.75-1.45v0c1.933-1.433 2.9-2.783 2.9-4.05v0c0-0.567-0.35-0.85-1.05-0.85v0c-1.333 0-2.883 0.817-4.65 2.45v0c-0.867 0.8-1.573 1.523-2.12 2.17-0.553 0.653-1.063 1.363-1.53 2.13v0c0.2 0.067 0.417 0.1 0.65 0.1zM244.6 2.15v0c-2.133 0-4.14-0.35-6.02-1.05-1.887-0.7-3.413-1.7-4.58-3-1.167-1.3-1.75-2.833-1.75-4.6v0c0-0.567 0.1-1.167 0.3-1.8v0c0.267-0.867 0.567-1.3 0.9-1.3v0c0.5 0 0.75 0.283 0.75 0.85v0c0 0.233-0.067 0.55-0.2 0.95v0c-0.133 0.4-0.2 0.783-0.2 1.15v0c0 1.467 0.5 2.74 1.5 3.82 1 1.087 2.293 1.913 3.88 2.48 1.58 0.567 3.237 0.85 4.97 0.85v0c3.767 0 6.967-0.9 9.6-2.7v0c1.367-0.933 2.5-2.06 3.4-3.38 0.9-1.313 1.35-2.72 1.35-4.22v0c0-1.367-0.34-2.5-1.02-3.4-0.687-0.9-1.63-1.677-2.83-2.33-1.2-0.647-2.583-1.237-4.15-1.77v0c-4.467-1.567-6.7-3.467-6.7-5.7v0c0-1.2 0.45-2.35 1.35-3.45 0.9-1.1 2-2.077 3.3-2.93 1.3-0.847 2.55-1.487 3.75-1.92v0c1.767-0.667 3.41-1.127 4.93-1.38 1.513-0.247 2.92-0.37 4.22-0.37v0c1.767 0 3.017 0.407 3.75 1.22 0.733 0.82 1.1 1.83 1.1 3.03v0c0 0.933-0.227 1.833-0.68 2.7-0.447 0.867-1.053 1.617-1.82 2.25v0c-0.867 0.733-1.567 1.1-2.1 1.1v0c-0.567 0-0.85-0.267-0.85-0.8v0c0-0.3 0.15-0.517 0.45-0.65v0c2.233-1.133 3.35-2.683 3.35-4.65v0c0-0.867-0.243-1.51-0.73-1.93-0.48-0.413-1.303-0.62-2.47-0.62v0c-1.067 0-2.26 0.117-3.58 0.35-1.313 0.233-2.653 0.583-4.02 1.05v0c-1.2 0.433-2.417 1.017-3.65 1.75-1.233 0.733-2.257 1.533-3.07 2.4-0.82 0.867-1.23 1.733-1.23 2.6v0c0 1.833 1.767 3.3 5.3 4.4v0c6.1 1.933 9.15 4.9 9.15 8.9v0c0 1.2-0.273 2.383-0.82 3.55-0.553 1.167-1.273 2.233-2.16 3.2-0.88 0.967-1.82 1.8-2.82 2.5v0c-1.433 1-2.99 1.727-4.67 2.18-1.687 0.447-3.413 0.67-5.18 0.67zM264.85 0.9v0c-0.533 0-0.8-0.267-0.8-0.8v0c0-0.7 0.25-1.81 0.75-3.33 0.5-1.513 1.157-3.26 1.97-5.24 0.82-1.987 1.697-4.03 2.63-6.13v0c0.533-1.167 1.083-2.31 1.65-3.43 0.567-1.113 1.1-2.087 1.6-2.92v0c4.933-8.333 8-12.5 9.2-12.5v0c0.467 0 0.7 0.233 0.7 0.7v0c0 0.3-0.223 0.857-0.67 1.67-0.453 0.82-1.037 1.77-1.75 2.85-0.72 1.087-1.49 2.18-2.31 3.28-0.813 1.1-1.58 2.107-2.3 3.02-0.713 0.92-1.287 1.613-1.72 2.08v0c-0.367 0.433-0.777 1.067-1.23 1.9-0.447 0.833-0.887 1.69-1.32 2.57-0.433 0.887-0.783 1.663-1.05 2.33v0l-1.9 4.7c0.5-0.667 1.15-1.417 1.95-2.25v0c1.9-2.1 3.877-3.693 5.93-4.78 2.047-1.08 3.77-1.62 5.17-1.62v0c0.767 0 1.383 0.233 1.85 0.7 0.467 0.467 0.7 1.033 0.7 1.7v0c0 1.3-0.85 3.483-2.55 6.55v0c-1.7 3.033-2.55 4.9-2.55 5.6v0c0 0.367 0.2 0.55 0.6 0.55v0c0.933 0 1.95-0.343 3.05-1.03 1.1-0.68 2.233-1.553 3.4-2.62 1.167-1.067 2.3-2.133 3.4-3.2v0c0.133-0.133 0.333-0.2 0.6-0.2v0c0.5 0 0.75 0.2 0.75 0.6v0c0 0.367-0.233 0.783-0.7 1.25v0c-2.233 2.233-4.15 3.9-5.75 5-1.6 1.1-3.283 1.65-5.05 1.65v0c-1.333 0-2-0.617-2-1.85v0c0-0.467 0.083-0.917 0.25-1.35 0.167-0.433 0.433-1.017 0.8-1.75v0l2.3-4.55c0.567-1.133 0.983-2.083 1.25-2.85 0.267-0.767 0.4-1.35 0.4-1.75v0c0-0.567-0.35-0.85-1.05-0.85v0c-1.233 0-2.677 0.49-4.33 1.47-1.647 0.987-3.403 2.463-5.27 4.43v0c-1.067 1.133-2.027 2.333-2.88 3.6-0.847 1.267-1.52 2.633-2.02 4.1v0l-0.6 1.75c-0.233 0.633-0.6 0.95-1.1 0.95zM289.75 0.5v0c-1.933 0-2.9-0.917-2.9-2.75v0c0-1.2 0.29-2.493 0.87-3.88 0.587-1.38 1.38-2.73 2.38-4.05 1-1.313 2.117-2.513 3.35-3.6 1.233-1.08 2.5-1.947 3.8-2.6 1.3-0.647 2.55-0.97 3.75-0.97v0c2.133 0 3.2 1.05 3.2 3.15v0c0 1.367-0.333 2.05-1 2.05v0c-0.6 0-0.9-0.283-0.9-0.85v0c0-0.233 0.057-0.477 0.17-0.73 0.12-0.247 0.18-0.52 0.18-0.82v0c0-0.933-0.633-1.4-1.9-1.4v0c-2.033 0-4.583 1.55-7.65 4.65v0c-0.733 0.767-1.45 1.667-2.15 2.7-0.7 1.033-1.277 2.073-1.73 3.12-0.447 1.053-0.67 2.047-0.67 2.98v0c0 0.9 0.5 1.35 1.5 1.35v0c0.867 0 1.79-0.267 2.77-0.8 0.987-0.533 1.847-1.083 2.58-1.65v0c1.467-1.1 2.967-2.6 4.5-4.5v0c0.233-0.267 0.533-0.617 0.9-1.05 0.367-0.433 0.783-0.917 1.25-1.45v0c0.167-0.167 0.367-0.25 0.6-0.25v0c0.533 0 0.8 0.267 0.8 0.8v0l-1.9 2.85c-1.267 1.867-1.9 3.4-1.9 4.6v0c0 0.867 0.417 1.3 1.25 1.3v0c0.7 0 1.467-0.183 2.3-0.55 0.833-0.367 1.517-0.733 2.05-1.1v0c1.067-0.7 2.183-1.577 3.35-2.63 1.167-1.047 2.283-2.103 3.35-3.17v0c0.133-0.133 0.333-0.2 0.6-0.2v0c0.5 0 0.75 0.2 0.75 0.6v0c0 0.367-0.233 0.783-0.7 1.25v0c-1.333 1.333-2.533 2.473-3.6 3.42-1.067 0.953-2.083 1.73-3.05 2.33v0c-0.633 0.367-1.417 0.75-2.35 1.15-0.933 0.4-2 0.6-3.2 0.6v0c-1.633 0-2.45-0.867-2.45-2.6v0c0-0.667 0.083-1.217 0.25-1.65v0c-3.033 2.9-5.85 4.35-8.45 4.35zM309.6 16.55v0c-2.033 0-3.05-1.2-3.05-3.6v0c0-2.033 0.433-4 1.3-5.9v0c0.133-0.333 0.35-0.5 0.65-0.5v0c0.6 0 0.9 0.267 0.9 0.8v0c0 0.133-0.043 0.31-0.13 0.53-0.08 0.213-0.17 0.453-0.27 0.72v0c-0.233 0.633-0.417 1.3-0.55 2-0.133 0.7-0.2 1.433-0.2 2.2v0c0 0.867 0.117 1.45 0.35 1.75 0.233 0.3 0.533 0.45 0.9 0.45v0c0.867 0 1.89-0.4 3.07-1.2 1.187-0.8 2.413-2.067 3.68-3.8v0c0.9-1.233 1.833-2.7 2.8-4.4 0.967-1.7 2-3.65 3.1-5.85v0c1.467-2.9 2.817-5.85 4.05-8.85v0c-0.833 1.067-1.7 2.1-2.6 3.1-0.9 1-1.867 1.933-2.9 2.8v0c-2.767 2.367-5.067 3.55-6.9 3.55v0c-2.2 0-3.3-1.267-3.3-3.8v0c0-0.9 0.173-1.983 0.52-3.25 0.353-1.267 0.847-2.717 1.48-4.35v0c0.1-0.267 0.15-0.493 0.15-0.68 0-0.18 0.05-0.37 0.15-0.57v0c0.533-1.167 1.417-2.467 2.65-3.9v0c0.267-0.3 0.5-0.45 0.7-0.45v0c0.5 0 0.75 0.367 0.75 1.1v0c-3.233 4.767-4.85 8.8-4.85 12.1v0c0 1.4 0.55 2.1 1.65 2.1v0c1.233 0 2.95-0.85 5.15-2.55v0c1.567-1.2 3.017-2.56 4.35-4.08 1.333-1.513 2.533-3.087 3.6-4.72v0c0.733-1.1 1.323-2.077 1.77-2.93 0.453-0.847 0.73-1.42 0.83-1.72v0c0.167-0.5 0.4-0.75 0.7-0.75v0c0.633 0 0.95 0.267 0.95 0.8v0c0 0.267-0.127 0.74-0.38 1.42-0.247 0.687-0.553 1.497-0.92 2.43v0c-0.533 1.367-1.3 3.2-2.3 5.5-1 2.3-2.25 5.033-3.75 8.2v0c-1.867 3.933-3.7 7.15-5.5 9.65v0c-1.333 1.9-2.793 3.483-4.38 4.75-1.58 1.267-2.987 1.9-4.22 1.9zM329.55 1.25v0c-0.533 0-0.8-0.217-0.8-0.65v0c0-0.2 0.057-0.4 0.17-0.6 0.12-0.2 0.213-0.367 0.28-0.5v0l4.55-9.2c1.933-3.933 2.9-6.117 2.9-6.55v0c0-0.467 0.233-0.7 0.7-0.7v0c0.633 0 0.95 0.317 0.95 0.95v0c0 0.333-0.15 0.867-0.45 1.6-0.3 0.733-0.683 1.583-1.15 2.55v0c-0.8 1.733-1.467 3.067-2 4v0c1-1.167 2.017-2.267 3.05-3.3 1.033-1.033 2.083-2.017 3.15-2.95v0c3.167-2.767 5.6-4.15 7.3-4.15v0c1.167 0 1.75 0.55 1.75 1.65v0c0 1.067-0.35 1.6-1.05 1.6v0c-0.333 0-0.583-0.283-0.75-0.85v0c-0.1-0.4-0.333-0.6-0.7-0.6v0c-0.567 0-1.667 0.617-3.3 1.85v0c-1.8 1.333-3.61 2.917-5.43 4.75-1.813 1.833-3.737 4.167-5.77 7v0l-2.5 3.5c-0.133 0.167-0.26 0.307-0.38 0.42-0.113 0.12-0.287 0.18-0.52 0.18zM358.1-19.7v0c-0.567 0-0.85-0.283-0.85-0.85v0c0-0.167 0.117-0.477 0.35-0.93 0.233-0.447 0.5-0.903 0.8-1.37 0.3-0.467 0.533-0.783 0.7-0.95v0c0.567-0.633 1.007-1.033 1.32-1.2 0.32-0.167 0.613-0.25 0.88-0.25v0c0.7 0 1.05 0.317 1.05 0.95v0c0 0.233-0.143 0.507-0.43 0.82-0.28 0.32-0.603 0.613-0.97 0.88v0c-0.533 0.333-0.867 0.6-1 0.8v0l-1.1 1.55c-0.033 0.133-0.11 0.257-0.23 0.37-0.113 0.12-0.287 0.18-0.52 0.18zM349.6 0.55v0c-0.933 0-1.61-0.183-2.03-0.55-0.413-0.367-0.62-0.917-0.62-1.65v0c0-0.7 0.217-1.66 0.65-2.88 0.433-1.213 0.99-2.52 1.67-3.92 0.687-1.4 1.413-2.733 2.18-4 0.767-1.267 1.507-2.31 2.22-3.13 0.72-0.813 1.297-1.22 1.73-1.22v0c0.6 0 0.9 0.267 0.9 0.8v0c0 0.333-0.283 0.967-0.85 1.9-0.567 0.933-1.183 1.9-1.85 2.9v0c-0.267 0.367-0.633 0.867-1.1 1.5-0.467 0.633-0.917 1.223-1.35 1.77-0.433 0.553-0.717 0.93-0.85 1.13v0c-0.333 0.5-0.683 1.317-1.05 2.45v0c-0.4 1.133-0.6 2-0.6 2.6v0c0 0.267 0.057 0.467 0.17 0.6 0.12 0.133 0.397 0.2 0.83 0.2v0c0.833 0 1.767-0.267 2.8-0.8 1.033-0.533 2.083-1.21 3.15-2.03 1.067-0.813 2.073-1.653 3.02-2.52 0.953-0.867 1.763-1.617 2.43-2.25v0c0.133-0.133 0.333-0.2 0.6-0.2v0c0.5 0 0.75 0.2 0.75 0.6v0c0 0.367-0.233 0.783-0.7 1.25v0c-0.9 0.9-1.733 1.7-2.5 2.4-0.767 0.7-1.5 1.317-2.2 1.85v0c-1.1 0.8-2.317 1.533-3.65 2.2-1.333 0.667-2.583 1-3.75 1z" fill="#539123" fill-rule="nonzero" stroke="none" stroke-width="1" stroke-linecap="butt" stroke-linejoin="miter" stroke-miterlimit="10" stroke-dasharray="" stroke-dashoffset="0" font-family="none" font-weight="none" font-size="none" text-anchor="none" style="mix-blend-mode: normal" data-fill-palette-color="secondary" id="text-1"></path></g></g><g transform="matrix(1,0,0,1,29.33176499999999,52.00516553901517)"><svg viewBox="0 0 316.416 59.321404421969675" height="59.321404421969675" width="316.416"><g><svg viewBox="0 0 316.416 59.321404421969675" height="59.321404421969675" width="316.416"><g><svg viewBox="0 0 361.09444197836035 67.69768098681412" height="59.321404421969675" width="316.416"><g><svg viewBox="0 0 316.416 67.69768098681412" height="67.69768098681412" width="316.416"><g id="textblocktransform"><svg viewBox="0 0 316.416 67.69768098681412" height="67.69768098681412" width="316.416" id="textblock"><g><svg viewBox="0 0 316.416 67.69768098681412" height="67.69768098681412" width="316.416"><g transform="matrix(1,0,0,1,0,0)"><svg width="316.416" viewBox="0.6 -33.75 240.07 50.3" height="67.69768098681412" data-palette-color="#00923f"><g class="wordmark-text-0" data-fill-palette-color="primary" id="text-0"><path d="M5.4 1.55L5.4 1.55Q3.25 1.55 1.93 0.25 0.6-1.05 0.6-3.2L0.6-3.2Q0.6-4.75 1.25-6.35 1.9-7.95 2.93-9.38 3.95-10.8 5.05-11.75L5.05-11.75Q5.9-12.55 6.55-12.55L6.55-12.55Q7.2-12.55 7.2-11.9L7.2-11.9Q7.2-11.3 6.35-10.55L6.35-10.55Q4.65-9.1 3.55-7 2.45-4.9 2.45-3.1L2.45-3.1Q2.45-0.25 5.5-0.25L5.5-0.25Q7.3-0.25 9.13-1.45 10.95-2.65 12.75-4.63 14.55-6.6 16.23-9.05 17.9-11.5 19.4-13.95L19.4-13.95Q26.05-24.7 28.25-31.75L28.25-31.75Q27.6-31.7 26.28-31.35 24.95-31 22.95-30.35L22.95-30.35Q21.05-29.75 20.1-29.43 19.15-29.1 18.8-29.1L18.8-29.1Q17.85-29.1 17.85-29.95L17.85-29.95Q17.85-30.4 18.5-30.8L18.5-30.8Q19.55-31.45 21.28-32.02 23-32.6 25.2-33L25.2-33Q29.05-33.75 32.6-33.75L32.6-33.75Q34.05-33.75 35.55-33.6 37.05-33.45 37.95-33.25L37.95-33.25Q38.8-33.1 38.8-32.4L38.8-32.4Q38.8-31.65 38.1-31.65L38.1-31.65Q37.9-31.65 36.55-31.88 35.2-32.1 32.95-32.1L32.95-32.1Q31.4-32.1 29.8-31.95L29.8-31.95Q30-31.75 30-31.45L30-31.45Q30-31.3 29.83-30.83 29.65-30.35 29.5-29.95L29.5-29.95Q28.2-26.3 26.23-22.38 24.25-18.45 21.65-14.15L21.65-14.15Q19.85-11.2 17.9-8.4 15.95-5.6 13.88-3.35 11.8-1.1 9.68 0.23 7.55 1.55 5.4 1.55ZM44.75 1.7L44.75 1.7Q42.3 1.7 42.3-1.85L42.3-1.85Q42.3-3.75 43.2-6.45L43.2-6.45Q37.15 0.6 33.7 0.6L33.7 0.6Q30.85 0.6 30.85-2.85L30.85-2.85Q30.85-4.15 31.27-5.98 31.7-7.8 32.42-9.75 33.15-11.7 34-13.4 34.85-15.1 35.7-16.15L35.7-16.15Q36-16.5 36.45-16.5L36.45-16.5Q36.7-16.5 36.95-16.32 37.2-16.15 37.2-15.8L37.2-15.8Q37.2-15.5 36.85-14.95L36.85-14.95Q34.6-11.25 33.65-8.5L33.65-8.5Q32.45-5.35 32.45-3.05L32.45-3.05Q32.45-0.9 33.55-0.9L33.55-0.9Q34.25-0.9 35.4-1.6 36.55-2.3 37.77-3.33 39-4.35 39.9-5.25L39.9-5.25Q42.4-7.9 44.4-10.9L44.4-10.9Q45.3-12.3 46.02-13.63 46.75-14.95 47.35-16.4L47.35-16.4Q47.6-16.95 47.77-17.23 47.95-17.5 48.3-17.5L48.3-17.5Q49.35-17.5 49.35-16.7L49.35-16.7Q49.35-16.2 49-16L49-16Q43.9-5.65 43.9-1.75L43.9-1.75Q43.9-0.7 44.1-0.28 44.3 0.15 44.8 0.15L44.8 0.15Q45.5 0.15 46.97-0.75 48.45-1.65 50.45-3.5L50.45-3.5 55.7-8.3Q56.1-8.7 56.45-8.7L56.45-8.7Q57.25-8.7 57.25-7.95L57.25-7.95Q57.25-7.3 54.1-4.45L54.1-4.45Q52.75-3.2 51.7-2.35 50.65-1.5 49.75-0.85L49.75-0.85Q48.05 0.35 46.75 1.03 45.45 1.7 44.75 1.7ZM55.25 1.65L55.25 1.65Q52.45 1.65 52.45-0.2L52.45-0.2Q52.45-1.35 53.27-2.5 54.1-3.65 55.25-4.6 56.4-5.55 57.4-6.05L57.4-6.05Q57.7-6.2 58.22-6.35 58.75-6.5 59.1-6.5L59.1-6.5Q59.5-6.5 59.5-6.2L59.5-6.2Q59.5-5.95 58.95-5.65L58.95-5.65Q56.65-4.55 55.37-3.03 54.1-1.5 54.1-0.55L54.1-0.55Q54.1 0.35 55.65 0.35L55.65 0.35Q56.95 0.35 58.47-0.3 60-0.95 61.37-2 62.75-3.05 63.65-4.25 64.55-5.45 64.55-6.55L64.55-6.55Q64.55-7.3 64.07-7.9 63.6-8.5 62.55-8.8L62.55-8.8 59.25-9.8Q58-10.2 57.45-10.85 56.9-11.5 56.9-12.3L56.9-12.3Q56.9-13.8 58.02-15 59.15-16.2 60.85-16.9 62.55-17.6 64.15-17.6L64.15-17.6Q65.75-17.6 66.95-16.82 68.15-16.05 68.15-14.75L68.15-14.75Q68.15-14 67.72-13.35 67.3-12.7 66.75-12.7L66.75-12.7Q65.9-12.7 65.9-13.4L65.9-13.4Q65.9-13.65 66.17-14.03 66.45-14.4 66.45-14.75L66.45-14.75Q66.45-16.25 64.15-16.25L64.15-16.25Q62.9-16.25 61.67-15.73 60.45-15.2 59.65-14.35 58.85-13.5 58.85-12.5L58.85-12.5Q58.85-11.5 60.85-10.9L60.85-10.9 64.05-9.9Q65.5-9.45 66.05-8.68 66.59-7.9 66.59-6.95L66.59-6.95Q66.59-4.7 63.85-2.3L63.85-2.3Q59.4 1.65 55.25 1.65ZM69.79 3.45L69.79 3.45Q68.84 3.45 68.84 1.95L68.84 1.95Q68.84-0.25 71.32-5.75 73.79-11.25 78.69-20.15L78.69-20.15Q76.79-20.15 75.12-19.68 73.44-19.2 73.34-18.5L73.34-18.5Q73.29-18.3 73.12-18.13 72.94-17.95 72.59-17.95L72.59-17.95Q71.79-17.95 71.79-18.75L71.79-18.75Q71.79-20.05 73.84-20.9 75.89-21.75 79.59-21.75L79.59-21.75 83.04-27.45Q83.39-28 83.79-28.68 84.19-29.35 84.69-30.15L84.69-30.15Q85.19-30.85 85.84-30.85L85.84-30.85Q86.24-30.85 86.44-30.63 86.64-30.4 86.64-30.15L86.64-30.15Q86.64-29.4 84.44-26.15L84.44-26.15Q81.69-22.1 81.49-21.75L81.49-21.75Q82.24-21.75 83.74-21.63 85.24-21.5 87.29-21.25L87.29-21.25Q88.04-21.2 88.04-20.5L88.04-20.5Q88.04-19.7 87.14-19.7L87.14-19.7Q86.79-19.7 85.74-19.83 84.69-19.95 83.49-20.05 82.29-20.15 81.44-20.1L81.44-20.1 80.69-20.05Q70.54-2.2 70.59 2.15L70.59 2.15 70.64 2.55 70.64 2.65Q70.64 3.45 69.79 3.45ZM82.04 0L82.04 0Q80.69 0 80.69-1.25L80.69-1.25Q80.69-2.6 81.94-2.6L81.94-2.6Q83.29-2.6 83.29-1.35L83.29-1.35Q83.29 0 82.04 0ZM98.49 2.15L98.49 2.15Q95.29 2.15 92.46 1.1 89.64 0.05 87.89-1.9 86.14-3.85 86.14-6.5L86.14-6.5Q86.14-7.35 86.44-8.3L86.44-8.3Q86.84-9.6 87.34-9.6L87.34-9.6Q88.09-9.6 88.09-8.75L88.09-8.75Q88.09-8.4 87.89-7.8L87.89-7.8Q87.69-7.2 87.69-6.65L87.69-6.65Q87.69-4.45 89.19-2.83 90.69-1.2 93.06-0.35 95.44 0.5 98.04 0.5L98.04 0.5Q103.69 0.5 107.64-2.2L107.64-2.2Q109.69-3.6 111.04-5.58 112.39-7.55 112.39-9.8L112.39-9.8Q112.39-11.85 111.36-13.2 110.34-14.55 108.54-15.53 106.74-16.5 104.39-17.3L104.39-17.3Q97.69-19.65 97.69-23L97.69-23Q97.69-24.8 99.04-26.45 100.39-28.1 102.34-29.38 104.29-30.65 106.09-31.3L106.09-31.3Q108.74-32.3 111.01-32.68 113.29-33.05 115.24-33.05L115.24-33.05Q117.89-33.05 118.99-31.83 120.09-30.6 120.09-28.8L120.09-28.8Q120.09-27.4 119.41-26.1 118.74-24.8 117.59-23.85L117.59-23.85Q116.29-22.75 115.49-22.75L115.49-22.75Q114.64-22.75 114.64-23.55L114.64-23.55Q114.64-24 115.09-24.2L115.09-24.2Q118.44-25.9 118.44-28.85L118.44-28.85Q118.44-30.15 117.71-30.78 116.99-31.4 115.24-31.4L115.24-31.4Q113.64-31.4 111.66-31.05 109.69-30.7 107.64-30L107.64-30Q105.84-29.35 103.99-28.25 102.14-27.15 100.91-25.85 99.69-24.55 99.69-23.25L99.69-23.25Q99.69-20.5 104.99-18.85L104.99-18.85Q114.14-15.95 114.14-9.95L114.14-9.95Q114.14-8.15 113.31-6.4 112.49-4.65 111.16-3.2 109.84-1.75 108.34-0.7L108.34-0.7Q106.19 0.8 103.66 1.48 101.14 2.15 98.49 2.15ZM118.74 0.9L118.74 0.9Q117.94 0.9 117.94 0.1L117.94 0.1Q117.94-0.95 118.69-3.23 119.44-5.5 120.66-8.47 121.89-11.45 123.29-14.6L123.29-14.6Q124.09-16.35 124.94-18.03 125.79-19.7 126.54-20.95L126.54-20.95Q133.94-33.45 135.74-33.45L135.74-33.45Q136.44-33.45 136.44-32.75L136.44-32.75Q136.44-32.3 135.76-31.08 135.09-29.85 134.01-28.23 132.94-26.6 131.71-24.95 130.49-23.3 129.41-21.93 128.34-20.55 127.69-19.85L127.69-19.85Q127.14-19.2 126.46-17.95 125.79-16.7 125.14-15.38 124.49-14.05 124.09-13.05L124.09-13.05 122.19-8.35Q122.94-9.35 124.14-10.6L124.14-10.6Q126.99-13.75 130.06-15.38 133.14-17 135.24-17L135.24-17Q136.39-17 137.09-16.3 137.79-15.6 137.79-14.6L137.79-14.6Q137.79-12.65 135.24-8.05L135.24-8.05Q132.69-3.5 132.69-2.45L132.69-2.45Q132.69-1.9 133.28-1.9L133.28-1.9Q134.69-1.9 136.34-2.93 137.99-3.95 139.74-5.55 141.49-7.15 143.14-8.75L143.14-8.75Q143.34-8.95 143.74-8.95L143.74-8.95Q144.49-8.95 144.49-8.35L144.49-8.35Q144.49-7.8 143.79-7.1L143.79-7.1Q140.44-3.75 138.04-2.1 135.64-0.45 132.99-0.45L132.99-0.45Q130.99-0.45 130.99-2.3L130.99-2.3Q130.99-3 131.24-3.65 131.49-4.3 132.03-5.4L132.03-5.4 134.34-9.95Q135.19-11.65 135.59-12.8 135.99-13.95 135.99-14.55L135.99-14.55Q135.99-15.4 134.94-15.4L134.94-15.4Q133.09-15.4 130.61-13.93 128.14-12.45 125.34-9.5L125.34-9.5Q123.74-7.8 122.46-5.9 121.19-4 120.44-1.8L120.44-1.8 119.84-0.05Q119.49 0.9 118.74 0.9ZM143.63 0.5L143.63 0.5Q140.73 0.5 140.73-2.25L140.73-2.25Q140.73-4.05 141.61-6.13 142.48-8.2 143.98-10.18 145.48-12.15 147.33-13.78 149.18-15.4 151.13-16.38 153.08-17.35 154.88-17.35L154.88-17.35Q158.08-17.35 158.08-14.2L158.08-14.2Q158.08-12.15 157.08-12.15L157.08-12.15Q156.18-12.15 156.18-13L156.18-13Q156.18-13.35 156.36-13.73 156.53-14.1 156.53-14.55L156.53-14.55Q156.53-15.95 154.63-15.95L154.63-15.95Q151.58-15.95 146.98-11.3L146.98-11.3Q145.88-10.15 144.83-8.6 143.78-7.05 143.11-5.48 142.43-3.9 142.43-2.5L142.43-2.5Q142.43-1.15 143.93-1.15L143.93-1.15Q145.23-1.15 146.71-1.95 148.18-2.75 149.28-3.6L149.28-3.6Q151.48-5.25 153.78-8.1L153.78-8.1Q154.13-8.5 154.68-9.15 155.23-9.8 155.93-10.6L155.93-10.6Q156.18-10.85 156.53-10.85L156.53-10.85Q157.33-10.85 157.33-10.05L157.33-10.05 155.43-7.2Q153.53-4.4 153.53-2.6L153.53-2.6Q153.53-1.3 154.78-1.3L154.78-1.3Q155.83-1.3 157.08-1.85 158.33-2.4 159.13-2.95L159.13-2.95Q160.73-4 162.48-5.58 164.23-7.15 165.83-8.75L165.83-8.75Q166.03-8.95 166.43-8.95L166.43-8.95Q167.18-8.95 167.18-8.35L167.18-8.35Q167.18-7.8 166.48-7.1L166.48-7.1Q164.48-5.1 162.88-3.68 161.28-2.25 159.83-1.35L159.83-1.35Q158.88-0.8 157.48-0.2 156.08 0.4 154.28 0.4L154.28 0.4Q151.83 0.4 151.83-2.2L151.83-2.2Q151.83-3.2 152.08-3.85L152.08-3.85Q147.53 0.5 143.63 0.5ZM163.48 16.55L163.48 16.55Q160.43 16.55 160.43 12.95L160.43 12.95Q160.43 9.9 161.73 7.05L161.73 7.05Q161.93 6.55 162.38 6.55L162.38 6.55Q163.28 6.55 163.28 7.35L163.28 7.35Q163.28 7.55 163.16 7.88 163.03 8.2 162.88 8.6L162.88 8.6Q162.53 9.55 162.33 10.6 162.13 11.65 162.13 12.8L162.13 12.8Q162.13 14.1 162.48 14.55 162.83 15 163.38 15L163.38 15Q164.68 15 166.46 13.8 168.23 12.6 170.13 10L170.13 10Q171.48 8.15 172.93 5.6 174.38 3.05 176.03-0.25L176.03-0.25Q178.23-4.6 180.08-9.1L180.08-9.1Q178.83-7.5 177.48-6 176.13-4.5 174.58-3.2L174.58-3.2Q170.43 0.35 167.68 0.35L167.68 0.35Q164.38 0.35 164.38-3.45L164.38-3.45Q164.38-4.8 164.91-6.7 165.43-8.6 166.38-11.05L166.38-11.05Q166.53-11.45 166.53-11.73 166.53-12 166.68-12.3L166.68-12.3Q167.48-14.05 169.33-16.2L169.33-16.2Q169.73-16.65 170.03-16.65L170.03-16.65Q170.78-16.65 170.78-15.55L170.78-15.55Q165.93-8.4 165.93-3.45L165.93-3.45Q165.93-1.35 167.58-1.35L167.58-1.35Q169.43-1.35 172.73-3.9L172.73-3.9Q175.08-5.7 177.08-7.98 179.08-10.25 180.68-12.7L180.68-12.7Q181.78-14.35 182.46-15.63 183.13-16.9 183.28-17.35L183.28-17.35Q183.53-18.1 183.98-18.1L183.98-18.1Q184.93-18.1 184.93-17.3L184.93-17.3Q184.93-16.9 184.56-15.88 184.18-14.85 183.63-13.45L183.63-13.45Q182.83-11.4 181.33-7.95 179.83-4.5 177.58 0.25L177.58 0.25Q174.78 6.15 172.08 9.9L172.08 9.9Q170.08 12.75 167.71 14.65 165.33 16.55 163.48 16.55ZM183.43 1.25L183.43 1.25Q182.63 1.25 182.63 0.6L182.63 0.6Q182.63 0.3 182.8 0 182.98-0.3 183.08-0.5L183.08-0.5 187.63-9.7Q190.53-15.6 190.53-16.25L190.53-16.25Q190.53-16.95 191.23-16.95L191.23-16.95Q192.18-16.95 192.18-16L192.18-16Q192.18-15.5 191.73-14.4 191.28-13.3 190.58-11.85L190.58-11.85Q189.38-9.25 188.58-7.85L188.58-7.85Q190.08-9.6 191.63-11.15 193.18-12.7 194.78-14.1L194.78-14.1Q199.53-18.25 202.08-18.25L202.08-18.25Q203.83-18.25 203.83-16.6L203.83-16.6Q203.83-15 202.78-15L202.78-15Q202.28-15 202.03-15.85L202.03-15.85Q201.88-16.45 201.33-16.45L201.33-16.45Q200.48-16.45 198.03-14.6L198.03-14.6Q195.33-12.6 192.6-9.85 189.88-7.1 186.83-2.85L186.83-2.85 184.33 0.65Q184.13 0.9 183.95 1.07 183.78 1.25 183.43 1.25ZM211.98-19.7L211.98-19.7Q211.13-19.7 211.13-20.55L211.13-20.55Q211.13-20.8 211.48-21.48 211.83-22.15 212.28-22.85 212.73-23.55 212.98-23.8L212.98-23.8Q213.83-24.75 214.3-25 214.78-25.25 215.18-25.25L215.18-25.25Q216.23-25.25 216.23-24.3L216.23-24.3Q216.23-23.95 215.8-23.48 215.38-23 214.83-22.6L214.83-22.6Q214.03-22.1 213.83-21.8L213.83-21.8 212.73-20.25Q212.68-20.05 212.5-19.88 212.33-19.7 211.98-19.7ZM203.48 0.55L203.48 0.55Q202.08 0.55 201.45 0 200.83-0.55 200.83-1.65L200.83-1.65Q200.83-2.7 201.48-4.53 202.13-6.35 203.15-8.45 204.18-10.55 205.33-12.45 206.48-14.35 207.55-15.58 208.63-16.8 209.28-16.8L209.28-16.8Q210.18-16.8 210.18-16L210.18-16Q210.18-15.5 209.33-14.1 208.48-12.7 207.48-11.2L207.48-11.2Q207.08-10.65 206.38-9.7 205.68-8.75 205.03-7.93 204.38-7.1 204.18-6.8L204.18-6.8Q203.68-6.05 203.13-4.35L203.13-4.35Q202.53-2.65 202.53-1.75L202.53-1.75Q202.53-1.35 202.7-1.15 202.88-0.95 203.53-0.95L203.53-0.95Q204.78-0.95 206.33-1.75 207.88-2.55 209.48-3.78 211.08-5 212.5-6.3 213.93-7.6 214.93-8.55L214.93-8.55Q215.13-8.75 215.53-8.75L215.53-8.75Q216.28-8.75 216.28-8.15L216.28-8.15Q216.28-7.6 215.58-6.9L215.58-6.9Q214.23-5.55 213.08-4.5 211.93-3.45 210.88-2.65L210.88-2.65Q209.23-1.45 207.23-0.45 205.23 0.55 203.48 0.55ZM224.17-19.7L224.17-19.7Q223.32-19.7 223.32-20.55L223.32-20.55Q223.32-20.8 223.67-21.48 224.02-22.15 224.47-22.85 224.92-23.55 225.17-23.8L225.17-23.8Q226.02-24.75 226.5-25 226.97-25.25 227.37-25.25L227.37-25.25Q228.42-25.25 228.42-24.3L228.42-24.3Q228.42-23.95 228-23.48 227.57-23 227.02-22.6L227.02-22.6Q226.22-22.1 226.02-21.8L226.02-21.8 224.92-20.25Q224.87-20.05 224.7-19.88 224.52-19.7 224.17-19.7ZM215.67 0.55L215.67 0.55Q214.27 0.55 213.65 0 213.02-0.55 213.02-1.65L213.02-1.65Q213.02-2.7 213.67-4.53 214.32-6.35 215.35-8.45 216.37-10.55 217.52-12.45 218.67-14.35 219.75-15.58 220.82-16.8 221.47-16.8L221.47-16.8Q222.37-16.8 222.37-16L222.37-16Q222.37-15.5 221.52-14.1 220.67-12.7 219.67-11.2L219.67-11.2Q219.27-10.65 218.57-9.7 217.87-8.75 217.22-7.93 216.57-7.1 216.37-6.8L216.37-6.8Q215.87-6.05 215.32-4.35L215.32-4.35Q214.72-2.65 214.72-1.75L214.72-1.75Q214.72-1.35 214.9-1.15 215.07-0.95 215.72-0.95L215.72-0.95Q216.97-0.95 218.52-1.75 220.07-2.55 221.67-3.78 223.27-5 224.7-6.3 226.12-7.6 227.12-8.55L227.12-8.55Q227.32-8.75 227.72-8.75L227.72-8.75Q228.47-8.75 228.47-8.15L228.47-8.15Q228.47-7.6 227.77-6.9L227.77-6.9Q226.42-5.55 225.27-4.5 224.12-3.45 223.07-2.65L223.07-2.65Q221.42-1.45 219.42-0.45 217.42 0.55 215.67 0.55ZM236.37-19.7L236.37-19.7Q235.52-19.7 235.52-20.55L235.52-20.55Q235.52-20.8 235.87-21.48 236.22-22.15 236.67-22.85 237.12-23.55 237.37-23.8L237.37-23.8Q238.22-24.75 238.69-25 239.17-25.25 239.57-25.25L239.57-25.25Q240.62-25.25 240.62-24.3L240.62-24.3Q240.62-23.95 240.19-23.48 239.77-23 239.22-22.6L239.22-22.6Q238.42-22.1 238.22-21.8L238.22-21.8 237.12-20.25Q237.07-20.05 236.9-19.88 236.72-19.7 236.37-19.7ZM227.87 0.55L227.87 0.55Q226.47 0.55 225.84 0 225.22-0.55 225.22-1.65L225.22-1.65Q225.22-2.7 225.87-4.53 226.52-6.35 227.55-8.45 228.57-10.55 229.72-12.45 230.87-14.35 231.94-15.58 233.02-16.8 233.67-16.8L233.67-16.8Q234.57-16.8 234.57-16L234.57-16Q234.57-15.5 233.72-14.1 232.87-12.7 231.87-11.2L231.87-11.2Q231.47-10.65 230.77-9.7 230.07-8.75 229.42-7.93 228.77-7.1 228.57-6.8L228.57-6.8Q228.07-6.05 227.52-4.35L227.52-4.35Q226.92-2.65 226.92-1.75L226.92-1.75Q226.92-1.35 227.09-1.15 227.27-0.95 227.92-0.95L227.92-0.95Q229.17-0.95 230.72-1.75 232.27-2.55 233.87-3.78 235.47-5 236.9-6.3 238.32-7.6 239.32-8.55L239.32-8.55Q239.52-8.75 239.92-8.75L239.92-8.75Q240.67-8.75 240.67-8.15L240.67-8.15Q240.67-7.6 239.97-6.9L239.97-6.9Q238.62-5.55 237.47-4.5 236.32-3.45 235.27-2.65L235.27-2.65Q233.62-1.45 231.62-0.45 229.62 0.55 227.87 0.55Z" fill="#00923f" data-fill-palette-color="primary"></path></g></svg></g></svg></g></svg></g></svg></g><g transform="matrix(1,0,0,1,332.39779773664316,2.039054151322837)"><svg viewBox="0 0 28.6966442417172 63.619572684168446" height="63.619572684168446" width="28.6966442417172"><g><svg xmlns="http://www.w3.org/2000/svg" xmlns:xlink="http://www.w3.org/1999/xlink" version="1.1" x="0" y="0" viewBox="29.756378281882117 5.000387316982365 40.488131819027686 89.76093592721375" enable-background="new 0 0 100 100" xml:space="preserve" height="63.619572684168446" width="28.6966442417172" class="icon-icon-0" data-fill-palette-color="accent" id="icon-0"><path d="M53.823 25.983c0.748-0.945 1.508-1.881 2.283-2.807 0.17-0.206 0.245-0.161 0.079 0.056-0.802 1.054-1.574 2.129-2.326 3.22l-0.597 0.91c-0.342 0.509-0.655 1.037-0.986 1.553l-0.658 1.036c-0.449 0.718-0.887 1.443-1.326 2.168l-0.543 0.889c-0.572 0.965-1.128 1.94-1.667 2.922l-0.52 0.965c-1.286 2.387-2.508 4.807-3.665 7.259-3.444 7.299-6.226 14.925-8.187 22.757-0.547 2.186-1.036 4.384-1.455 6.598-0.565 2.974-1.011 5.971-1.331 8.979-0.328 3.095-0.294 6.339 0.67 9.325 0.307 0.954 0.725 1.848 1.209 2.705 0.228 0.408 0.594 0.267 0.448-0.157-0.848-2.482-1.112-5.282-0.61-7.654 0.431-2.036 1.435-3.888 2.542-5.632 0.241-0.32 0.532-0.619 0.792-0.957 0.331-0.389 0.654-0.803 1.041-1.174 0.372-0.385 0.75-0.771 1.129-1.161 0.817-0.715 1.598-1.475 2.424-2.081 0.412-0.301 0.771-0.659 1.166-0.907 0.386-0.262 0.744-0.528 1.078-0.774 0.66-0.499 1.284-0.848 1.677-1.141 0.129-0.094 0.24-0.172 0.332-0.237 0.193-0.14 0.181-0.177-0.035-0.108-0.111 0.036-0.247 0.077-0.406 0.129-0.461 0.174-1.139 0.352-1.898 0.739-0.383 0.185-0.8 0.389-1.234 0.62-0.449 0.211-0.862 0.515-1.311 0.806-0.146 0.103-0.298 0.198-0.45 0.301-0.069 0.045-0.104 0.002-0.053-0.063 1.079-1.409 2.171-2.806 3.25-4.215 1.081-1.422 2.139-2.861 3.163-4.326 3.46-4.537 6.529-12.121 9.972-16.204 0.085-0.102 0.101-0.19-0.091-0.066-0.803 0.519-2.831 1.807-4.573 3.085-1.507 1.114-2.751 2.243-3.22 2.626-0.105 0.088-0.109 0.013-0.049-0.071 0.672-0.928 2.889-3.469 7.329-7.56 1.04-0.96 1.958-2.149 2.505-3.477 0.065-0.157 0.021-0.216-0.07-0.092-1.051 1.393-2.621 2.328-4.157 3.102-0.106 0.054-0.14 0.022-0.049-0.05 3.472-2.744 5.914-7.258 7.693-11.741 1.972-4.972 3.428-10.21 4.71-15.396 0.524-2.116 1.009-4.238 1.44-6.375 0.323-1.596 0.618-3.196 0.872-4.806 0.037-0.219 0.064-0.479 0.084-0.76 0.011-0.2-0.157-0.358-0.398-0.199-0.384 0.255-0.947 0.526-1.312 0.691-0.214 0.096-0.146 0.017-0.039-0.064 0.642-0.486 1.27-1.222 1.494-1.955 0.236-0.787-0.307-1.737-1.021-2.031-1.357-0.559-3.038 0.273-4.139 1.046-0.339 0.237-0.666 0.505-0.967 0.788-0.516 0.484-0.959 1.028-1.347 1.618-0.023 0.036-0.036 0.076-0.032-0.009 0.012-0.232 0.067-0.73 0.334-1.205 0.025-0.047 0-0.093-0.043-0.068-1.859 1.064-3.699 2.192-5.465 3.444-2.061 1.46-4.081 2.991-5.941 4.702-0.526 0.486-1.041 0.983-1.541 1.499-0.351 0.364-0.693 0.736-1.027 1.115-0.169 0.194-0.338 0.39-0.504 0.586-0.138 0.165-0.434 0.409-0.502 0.612 0.312-0.925 0.438-1.928 0.222-2.885-0.091-0.399-0.18-0.17-0.189 0.007-0.126 2.219-1.422 4.284-2.435 6.198-0.292 0.552-0.58 1.106-0.841 1.674-0.685 1.487-1.295 3.024-1.662 4.625-0.036 0.155-0.077 0.274-0.115 0.251-0.021-0.014-0.041-0.072-0.058-0.196-0.046-0.35-0.024-0.713-0.013-1.065 0.026-0.84 0.108-1.659 0.288-2.481 0.088-0.406 0.204-0.804 0.352-1.192 0.039-0.102-0.022-0.125-0.093-0.036-1.054 1.308-2.065 2.647-2.997 4.039-3.964 5.929-6.85 12.6-8.582 19.513-0.508 2.022-0.899 4.073-1.097 6.151-0.119 1.247-0.159 3.043 0.923 3.924 0.041 0.033 0.073 0.074-0.017 0.033-0.281-0.136-0.899-0.47-1.211-0.946-0.017-0.024-0.056-0.009-0.059 0.024-0.528 4.827-0.604 9.692-0.181 14.589 0.21 2.432 0.511 4.854 0.879 7.27 0.164 1.064 0.393 2.122 0.611 3.177 0.162 0.78 0.315 0.751 0.375-0.05 0.084-1.124 0.286-2.253 0.442-3.353 0.292-2.052 0.604-4.104 0.959-6.146 1.158-6.669 2.883-13.271 5.313-19.59 2.318-6.036 5.171-11.918 8.578-17.419l0.585-0.889c0.553-0.865 1.108-1.728 1.692-2.574l0.599-0.84c0.482-0.685 0.958-1.37 1.453-2.044l0.682-0.925c0.336-0.446 0.651-0.91 0.995-1.35L53.823 25.983z" fill="#237d00" data-fill-palette-color="accent"></path></svg></g></svg></g></svg></g></svg></g></svg></g></svg></g><defs></defs></svg><rect width="375.07953" height="163.3317355" fill="none" stroke="none" visibility="hidden"></rect></g></svg></g></svg>