<svg xmlns="http://www.w3.org/2000/svg" version="1.1" xmlns:xlink="http://www.w3.org/1999/xlink" xmlns:svgjs="http://svgjs.dev/svgjs" width="1500" height="1500" viewBox="0 0 1500 1500"><rect width="1500" height="1500" fill="#ffffff"></rect><g transform="matrix(0.6666666666666666,0,0,0.6666666666666666,249.39393939393938,438.5856950067478)"><svg viewBox="0 0 396 247" data-background-color="#ffffff" preserveAspectRatio="xMidYMid meet" height="935" width="1500" xmlns="http://www.w3.org/2000/svg" xmlns:xlink="http://www.w3.org/1999/xlink"><g id="tight-bounds" transform="matrix(1,0,0,1,0.2400000000000091,-0.09999999999999432)"><svg viewBox="0 0 395.52 247.2" height="247.2" width="395.52"><g><svg></svg></g><g><svg viewBox="0 0 395.52 247.2" height="247.2" width="395.52"><g transform="matrix(1,0,0,1,75.54432,84.68207510321334)"><svg viewBox="0 0 244.43135999999998 77.83584979357332" height="77.83584979357332" width="244.43135999999998"><g><svg viewBox="0 0 244.43135999999998 77.83584979357332" height="77.83584979357332" width="244.43135999999998"><g><svg viewBox="0 0 294.1465985898499 93.66699291420733" height="77.83584979357332" width="244.43135999999998"><g><svg viewBox="0 0 244.43136 93.66699291420733" height="93.66699291420733" width="244.43136"><g id="textblocktransform"><svg viewBox="0 0 244.43136 93.66699291420733" height="93.66699291420733" width="244.43136" id="textblock"><g><svg viewBox="0 0 244.43136 52.2964585623139" height="52.2964585623139" width="244.43136"><g transform="matrix(1,0,0,1,0,0)"><svg width="244.43136" viewBox="0.6 -33.75 240.07 50.3" height="52.2964585623139" data-palette-color="#00923f"><g class="wordmark-text-0" data-fill-palette-color="primary" id="text-0"><path d="M5.4 1.55L5.4 1.55Q3.25 1.55 1.93 0.25 0.6-1.05 0.6-3.2L0.6-3.2Q0.6-4.75 1.25-6.35 1.9-7.95 2.93-9.38 3.95-10.8 5.05-11.75L5.05-11.75Q5.9-12.55 6.55-12.55L6.55-12.55Q7.2-12.55 7.2-11.9L7.2-11.9Q7.2-11.3 6.35-10.55L6.35-10.55Q4.65-9.1 3.55-7 2.45-4.9 2.45-3.1L2.45-3.1Q2.45-0.25 5.5-0.25L5.5-0.25Q7.3-0.25 9.13-1.45 10.95-2.65 12.75-4.63 14.55-6.6 16.23-9.05 17.9-11.5 19.4-13.95L19.4-13.95Q26.05-24.7 28.25-31.75L28.25-31.75Q27.6-31.7 26.28-31.35 24.95-31 22.95-30.35L22.95-30.35Q21.05-29.75 20.1-29.43 19.15-29.1 18.8-29.1L18.8-29.1Q17.85-29.1 17.85-29.95L17.85-29.95Q17.85-30.4 18.5-30.8L18.5-30.8Q19.55-31.45 21.28-32.02 23-32.6 25.2-33L25.2-33Q29.05-33.75 32.6-33.75L32.6-33.75Q34.05-33.75 35.55-33.6 37.05-33.45 37.95-33.25L37.95-33.25Q38.8-33.1 38.8-32.4L38.8-32.4Q38.8-31.65 38.1-31.65L38.1-31.65Q37.9-31.65 36.55-31.88 35.2-32.1 32.95-32.1L32.95-32.1Q31.4-32.1 29.8-31.95L29.8-31.95Q30-31.75 30-31.45L30-31.45Q30-31.3 29.83-30.83 29.65-30.35 29.5-29.95L29.5-29.95Q28.2-26.3 26.23-22.38 24.25-18.45 21.65-14.15L21.65-14.15Q19.85-11.2 17.9-8.4 15.95-5.6 13.88-3.35 11.8-1.1 9.68 0.23 7.55 1.55 5.4 1.55ZM44.75 1.7L44.75 1.7Q42.3 1.7 42.3-1.85L42.3-1.85Q42.3-3.75 43.2-6.45L43.2-6.45Q37.15 0.6 33.7 0.6L33.7 0.6Q30.85 0.6 30.85-2.85L30.85-2.85Q30.85-4.15 31.27-5.98 31.7-7.8 32.42-9.75 33.15-11.7 34-13.4 34.85-15.1 35.7-16.15L35.7-16.15Q36-16.5 36.45-16.5L36.45-16.5Q36.7-16.5 36.95-16.32 37.2-16.15 37.2-15.8L37.2-15.8Q37.2-15.5 36.85-14.95L36.85-14.95Q34.6-11.25 33.65-8.5L33.65-8.5Q32.45-5.35 32.45-3.05L32.45-3.05Q32.45-0.9 33.55-0.9L33.55-0.9Q34.25-0.9 35.4-1.6 36.55-2.3 37.77-3.33 39-4.35 39.9-5.25L39.9-5.25Q42.4-7.9 44.4-10.9L44.4-10.9Q45.3-12.3 46.02-13.63 46.75-14.95 47.35-16.4L47.35-16.4Q47.6-16.95 47.77-17.23 47.95-17.5 48.3-17.5L48.3-17.5Q49.35-17.5 49.35-16.7L49.35-16.7Q49.35-16.2 49-16L49-16Q43.9-5.65 43.9-1.75L43.9-1.75Q43.9-0.7 44.1-0.28 44.3 0.15 44.8 0.15L44.8 0.15Q45.5 0.15 46.97-0.75 48.45-1.65 50.45-3.5L50.45-3.5 55.7-8.3Q56.1-8.7 56.45-8.7L56.45-8.7Q57.25-8.7 57.25-7.95L57.25-7.95Q57.25-7.3 54.1-4.45L54.1-4.45Q52.75-3.2 51.7-2.35 50.65-1.5 49.75-0.85L49.75-0.85Q48.05 0.35 46.75 1.03 45.45 1.7 44.75 1.7ZM55.25 1.65L55.25 1.65Q52.45 1.65 52.45-0.2L52.45-0.2Q52.45-1.35 53.27-2.5 54.1-3.65 55.25-4.6 56.4-5.55 57.4-6.05L57.4-6.05Q57.7-6.2 58.22-6.35 58.75-6.5 59.1-6.5L59.1-6.5Q59.5-6.5 59.5-6.2L59.5-6.2Q59.5-5.95 58.95-5.65L58.95-5.65Q56.65-4.55 55.37-3.03 54.1-1.5 54.1-0.55L54.1-0.55Q54.1 0.35 55.65 0.35L55.65 0.35Q56.95 0.35 58.47-0.3 60-0.95 61.37-2 62.75-3.05 63.65-4.25 64.55-5.45 64.55-6.55L64.55-6.55Q64.55-7.3 64.07-7.9 63.6-8.5 62.55-8.8L62.55-8.8 59.25-9.8Q58-10.2 57.45-10.85 56.9-11.5 56.9-12.3L56.9-12.3Q56.9-13.8 58.02-15 59.15-16.2 60.85-16.9 62.55-17.6 64.15-17.6L64.15-17.6Q65.75-17.6 66.95-16.82 68.15-16.05 68.15-14.75L68.15-14.75Q68.15-14 67.72-13.35 67.3-12.7 66.75-12.7L66.75-12.7Q65.9-12.7 65.9-13.4L65.9-13.4Q65.9-13.65 66.17-14.03 66.45-14.4 66.45-14.75L66.45-14.75Q66.45-16.25 64.15-16.25L64.15-16.25Q62.9-16.25 61.67-15.73 60.45-15.2 59.65-14.35 58.85-13.5 58.85-12.5L58.85-12.5Q58.85-11.5 60.85-10.9L60.85-10.9 64.05-9.9Q65.5-9.45 66.05-8.68 66.59-7.9 66.59-6.95L66.59-6.95Q66.59-4.7 63.85-2.3L63.85-2.3Q59.4 1.65 55.25 1.65ZM69.79 3.45L69.79 3.45Q68.84 3.45 68.84 1.95L68.84 1.95Q68.84-0.25 71.32-5.75 73.79-11.25 78.69-20.15L78.69-20.15Q76.79-20.15 75.12-19.68 73.44-19.2 73.34-18.5L73.34-18.5Q73.29-18.3 73.12-18.13 72.94-17.95 72.59-17.95L72.59-17.95Q71.79-17.95 71.79-18.75L71.79-18.75Q71.79-20.05 73.84-20.9 75.89-21.75 79.59-21.75L79.59-21.75 83.04-27.45Q83.39-28 83.79-28.68 84.19-29.35 84.69-30.15L84.69-30.15Q85.19-30.85 85.84-30.85L85.84-30.85Q86.24-30.85 86.44-30.63 86.64-30.4 86.64-30.15L86.64-30.15Q86.64-29.4 84.44-26.15L84.44-26.15Q81.69-22.1 81.49-21.75L81.49-21.75Q82.24-21.75 83.74-21.63 85.24-21.5 87.29-21.25L87.29-21.25Q88.04-21.2 88.04-20.5L88.04-20.5Q88.04-19.7 87.14-19.7L87.14-19.7Q86.79-19.7 85.74-19.83 84.69-19.95 83.49-20.05 82.29-20.15 81.44-20.1L81.44-20.1 80.69-20.05Q70.54-2.2 70.59 2.15L70.59 2.15 70.64 2.55 70.64 2.65Q70.64 3.45 69.79 3.45ZM82.04 0L82.04 0Q80.69 0 80.69-1.25L80.69-1.25Q80.69-2.6 81.94-2.6L81.94-2.6Q83.29-2.6 83.29-1.35L83.29-1.35Q83.29 0 82.04 0ZM98.49 2.15L98.49 2.15Q95.29 2.15 92.46 1.1 89.64 0.05 87.89-1.9 86.14-3.85 86.14-6.5L86.14-6.5Q86.14-7.35 86.44-8.3L86.44-8.3Q86.84-9.6 87.34-9.6L87.34-9.6Q88.09-9.6 88.09-8.75L88.09-8.75Q88.09-8.4 87.89-7.8L87.89-7.8Q87.69-7.2 87.69-6.65L87.69-6.65Q87.69-4.45 89.19-2.83 90.69-1.2 93.06-0.35 95.44 0.5 98.04 0.5L98.04 0.5Q103.69 0.5 107.64-2.2L107.64-2.2Q109.69-3.6 111.04-5.58 112.39-7.55 112.39-9.8L112.39-9.8Q112.39-11.85 111.36-13.2 110.34-14.55 108.54-15.53 106.74-16.5 104.39-17.3L104.39-17.3Q97.69-19.65 97.69-23L97.69-23Q97.69-24.8 99.04-26.45 100.39-28.1 102.34-29.38 104.29-30.65 106.09-31.3L106.09-31.3Q108.74-32.3 111.01-32.68 113.29-33.05 115.24-33.05L115.24-33.05Q117.89-33.05 118.99-31.83 120.09-30.6 120.09-28.8L120.09-28.8Q120.09-27.4 119.41-26.1 118.74-24.8 117.59-23.85L117.59-23.85Q116.29-22.75 115.49-22.75L115.49-22.75Q114.64-22.75 114.64-23.55L114.64-23.55Q114.64-24 115.09-24.2L115.09-24.2Q118.44-25.9 118.44-28.85L118.44-28.85Q118.44-30.15 117.71-30.78 116.99-31.4 115.24-31.4L115.24-31.4Q113.64-31.4 111.66-31.05 109.69-30.7 107.64-30L107.64-30Q105.84-29.35 103.99-28.25 102.14-27.15 100.91-25.85 99.69-24.55 99.69-23.25L99.69-23.25Q99.69-20.5 104.99-18.85L104.99-18.85Q114.14-15.95 114.14-9.95L114.14-9.95Q114.14-8.15 113.31-6.4 112.49-4.65 111.16-3.2 109.84-1.75 108.34-0.7L108.34-0.7Q106.19 0.8 103.66 1.48 101.14 2.15 98.49 2.15ZM118.74 0.9L118.74 0.9Q117.94 0.9 117.94 0.1L117.94 0.1Q117.94-0.95 118.69-3.23 119.44-5.5 120.66-8.47 121.89-11.45 123.29-14.6L123.29-14.6Q124.09-16.35 124.94-18.03 125.79-19.7 126.54-20.95L126.54-20.95Q133.94-33.45 135.74-33.45L135.74-33.45Q136.44-33.45 136.44-32.75L136.44-32.75Q136.44-32.3 135.76-31.08 135.09-29.85 134.01-28.23 132.94-26.6 131.71-24.95 130.49-23.3 129.41-21.93 128.34-20.55 127.69-19.85L127.69-19.85Q127.14-19.2 126.46-17.95 125.79-16.7 125.14-15.38 124.49-14.05 124.09-13.05L124.09-13.05 122.19-8.35Q122.94-9.35 124.14-10.6L124.14-10.6Q126.99-13.75 130.06-15.38 133.14-17 135.24-17L135.24-17Q136.39-17 137.09-16.3 137.79-15.6 137.79-14.6L137.79-14.6Q137.79-12.65 135.24-8.05L135.24-8.05Q132.69-3.5 132.69-2.45L132.69-2.45Q132.69-1.9 133.28-1.9L133.28-1.9Q134.69-1.9 136.34-2.93 137.99-3.95 139.74-5.55 141.49-7.15 143.14-8.75L143.14-8.75Q143.34-8.95 143.74-8.95L143.74-8.95Q144.49-8.95 144.49-8.35L144.49-8.35Q144.49-7.8 143.79-7.1L143.79-7.1Q140.44-3.75 138.04-2.1 135.64-0.45 132.99-0.45L132.99-0.45Q130.99-0.45 130.99-2.3L130.99-2.3Q130.99-3 131.24-3.65 131.49-4.3 132.03-5.4L132.03-5.4 134.34-9.95Q135.19-11.65 135.59-12.8 135.99-13.95 135.99-14.55L135.99-14.55Q135.99-15.4 134.94-15.4L134.94-15.4Q133.09-15.4 130.61-13.93 128.14-12.45 125.34-9.5L125.34-9.5Q123.74-7.8 122.46-5.9 121.19-4 120.44-1.8L120.44-1.8 119.84-0.05Q119.49 0.9 118.74 0.9ZM143.63 0.5L143.63 0.5Q140.73 0.5 140.73-2.25L140.73-2.25Q140.73-4.05 141.61-6.13 142.48-8.2 143.98-10.18 145.48-12.15 147.33-13.78 149.18-15.4 151.13-16.38 153.08-17.35 154.88-17.35L154.88-17.35Q158.08-17.35 158.08-14.2L158.08-14.2Q158.08-12.15 157.08-12.15L157.08-12.15Q156.18-12.15 156.18-13L156.18-13Q156.18-13.35 156.36-13.73 156.53-14.1 156.53-14.55L156.53-14.55Q156.53-15.95 154.63-15.95L154.63-15.95Q151.58-15.95 146.98-11.3L146.98-11.3Q145.88-10.15 144.83-8.6 143.78-7.05 143.11-5.48 142.43-3.9 142.43-2.5L142.43-2.5Q142.43-1.15 143.93-1.15L143.93-1.15Q145.23-1.15 146.71-1.95 148.18-2.75 149.28-3.6L149.28-3.6Q151.48-5.25 153.78-8.1L153.78-8.1Q154.13-8.5 154.68-9.15 155.23-9.8 155.93-10.6L155.93-10.6Q156.18-10.85 156.53-10.85L156.53-10.85Q157.33-10.85 157.33-10.05L157.33-10.05 155.43-7.2Q153.53-4.4 153.53-2.6L153.53-2.6Q153.53-1.3 154.78-1.3L154.78-1.3Q155.83-1.3 157.08-1.85 158.33-2.4 159.13-2.95L159.13-2.95Q160.73-4 162.48-5.58 164.23-7.15 165.83-8.75L165.83-8.75Q166.03-8.95 166.43-8.95L166.43-8.95Q167.18-8.95 167.18-8.35L167.18-8.35Q167.18-7.8 166.48-7.1L166.48-7.1Q164.48-5.1 162.88-3.68 161.28-2.25 159.83-1.35L159.83-1.35Q158.88-0.8 157.48-0.2 156.08 0.4 154.28 0.4L154.28 0.4Q151.83 0.4 151.83-2.2L151.83-2.2Q151.83-3.2 152.08-3.85L152.08-3.85Q147.53 0.5 143.63 0.5ZM163.48 16.55L163.48 16.55Q160.43 16.55 160.43 12.95L160.43 12.95Q160.43 9.9 161.73 7.05L161.73 7.05Q161.93 6.55 162.38 6.55L162.38 6.55Q163.28 6.55 163.28 7.35L163.28 7.35Q163.28 7.55 163.16 7.88 163.03 8.2 162.88 8.6L162.88 8.6Q162.53 9.55 162.33 10.6 162.13 11.65 162.13 12.8L162.13 12.8Q162.13 14.1 162.48 14.55 162.83 15 163.38 15L163.38 15Q164.68 15 166.46 13.8 168.23 12.6 170.13 10L170.13 10Q171.48 8.15 172.93 5.6 174.38 3.05 176.03-0.25L176.03-0.25Q178.23-4.6 180.08-9.1L180.08-9.1Q178.83-7.5 177.48-6 176.13-4.5 174.58-3.2L174.58-3.2Q170.43 0.35 167.68 0.35L167.68 0.35Q164.38 0.35 164.38-3.45L164.38-3.45Q164.38-4.8 164.91-6.7 165.43-8.6 166.38-11.05L166.38-11.05Q166.53-11.45 166.53-11.73 166.53-12 166.68-12.3L166.68-12.3Q167.48-14.05 169.33-16.2L169.33-16.2Q169.73-16.65 170.03-16.65L170.03-16.65Q170.78-16.65 170.78-15.55L170.78-15.55Q165.93-8.4 165.93-3.45L165.93-3.45Q165.93-1.35 167.58-1.35L167.58-1.35Q169.43-1.35 172.73-3.9L172.73-3.9Q175.08-5.7 177.08-7.98 179.08-10.25 180.68-12.7L180.68-12.7Q181.78-14.35 182.46-15.63 183.13-16.9 183.28-17.35L183.28-17.35Q183.53-18.1 183.98-18.1L183.98-18.1Q184.93-18.1 184.93-17.3L184.93-17.3Q184.93-16.9 184.56-15.88 184.18-14.85 183.63-13.45L183.63-13.45Q182.83-11.4 181.33-7.95 179.83-4.5 177.58 0.25L177.58 0.25Q174.78 6.15 172.08 9.9L172.08 9.9Q170.08 12.75 167.71 14.65 165.33 16.55 163.48 16.55ZM183.43 1.25L183.43 1.25Q182.63 1.25 182.63 0.6L182.63 0.6Q182.63 0.3 182.8 0 182.98-0.3 183.08-0.5L183.08-0.5 187.63-9.7Q190.53-15.6 190.53-16.25L190.53-16.25Q190.53-16.95 191.23-16.95L191.23-16.95Q192.18-16.95 192.18-16L192.18-16Q192.18-15.5 191.73-14.4 191.28-13.3 190.58-11.85L190.58-11.85Q189.38-9.25 188.58-7.85L188.58-7.85Q190.08-9.6 191.63-11.15 193.18-12.7 194.78-14.1L194.78-14.1Q199.53-18.25 202.08-18.25L202.08-18.25Q203.83-18.25 203.83-16.6L203.83-16.6Q203.83-15 202.78-15L202.78-15Q202.28-15 202.03-15.85L202.03-15.85Q201.88-16.45 201.33-16.45L201.33-16.45Q200.48-16.45 198.03-14.6L198.03-14.6Q195.33-12.6 192.6-9.85 189.88-7.1 186.83-2.85L186.83-2.85 184.33 0.65Q184.13 0.9 183.95 1.07 183.78 1.25 183.43 1.25ZM211.98-19.7L211.98-19.7Q211.13-19.7 211.13-20.55L211.13-20.55Q211.13-20.8 211.48-21.48 211.83-22.15 212.28-22.85 212.73-23.55 212.98-23.8L212.98-23.8Q213.83-24.75 214.3-25 214.78-25.25 215.18-25.25L215.18-25.25Q216.23-25.25 216.23-24.3L216.23-24.3Q216.23-23.95 215.8-23.48 215.38-23 214.83-22.6L214.83-22.6Q214.03-22.1 213.83-21.8L213.83-21.8 212.73-20.25Q212.68-20.05 212.5-19.88 212.33-19.7 211.98-19.7ZM203.48 0.55L203.48 0.55Q202.08 0.55 201.45 0 200.83-0.55 200.83-1.65L200.83-1.65Q200.83-2.7 201.48-4.53 202.13-6.35 203.15-8.45 204.18-10.55 205.33-12.45 206.48-14.35 207.55-15.58 208.63-16.8 209.28-16.8L209.28-16.8Q210.18-16.8 210.18-16L210.18-16Q210.18-15.5 209.33-14.1 208.48-12.7 207.48-11.2L207.48-11.2Q207.08-10.65 206.38-9.7 205.68-8.75 205.03-7.93 204.38-7.1 204.18-6.8L204.18-6.8Q203.68-6.05 203.13-4.35L203.13-4.35Q202.53-2.65 202.53-1.75L202.53-1.75Q202.53-1.35 202.7-1.15 202.88-0.95 203.53-0.95L203.53-0.95Q204.78-0.95 206.33-1.75 207.88-2.55 209.48-3.78 211.08-5 212.5-6.3 213.93-7.6 214.93-8.55L214.93-8.55Q215.13-8.75 215.53-8.75L215.53-8.75Q216.28-8.75 216.28-8.15L216.28-8.15Q216.28-7.6 215.58-6.9L215.58-6.9Q214.23-5.55 213.08-4.5 211.93-3.45 210.88-2.65L210.88-2.65Q209.23-1.45 207.23-0.45 205.23 0.55 203.48 0.55ZM224.17-19.7L224.17-19.7Q223.32-19.7 223.32-20.55L223.32-20.55Q223.32-20.8 223.67-21.48 224.02-22.15 224.47-22.85 224.92-23.55 225.17-23.8L225.17-23.8Q226.02-24.75 226.5-25 226.97-25.25 227.37-25.25L227.37-25.25Q228.42-25.25 228.42-24.3L228.42-24.3Q228.42-23.95 228-23.48 227.57-23 227.02-22.6L227.02-22.6Q226.22-22.1 226.02-21.8L226.02-21.8 224.92-20.25Q224.87-20.05 224.7-19.88 224.52-19.7 224.17-19.7ZM215.67 0.55L215.67 0.55Q214.27 0.55 213.65 0 213.02-0.55 213.02-1.65L213.02-1.65Q213.02-2.7 213.67-4.53 214.32-6.35 215.35-8.45 216.37-10.55 217.52-12.45 218.67-14.35 219.75-15.58 220.82-16.8 221.47-16.8L221.47-16.8Q222.37-16.8 222.37-16L222.37-16Q222.37-15.5 221.52-14.1 220.67-12.7 219.67-11.2L219.67-11.2Q219.27-10.65 218.57-9.7 217.87-8.75 217.22-7.93 216.57-7.1 216.37-6.8L216.37-6.8Q215.87-6.05 215.32-4.35L215.32-4.35Q214.72-2.65 214.72-1.75L214.72-1.75Q214.72-1.35 214.9-1.15 215.07-0.95 215.72-0.95L215.72-0.95Q216.97-0.95 218.52-1.75 220.07-2.55 221.67-3.78 223.27-5 224.7-6.3 226.12-7.6 227.12-8.55L227.12-8.55Q227.32-8.75 227.72-8.75L227.72-8.75Q228.47-8.75 228.47-8.15L228.47-8.15Q228.47-7.6 227.77-6.9L227.77-6.9Q226.42-5.55 225.27-4.5 224.12-3.45 223.07-2.65L223.07-2.65Q221.42-1.45 219.42-0.45 217.42 0.55 215.67 0.55ZM236.37-19.7L236.37-19.7Q235.52-19.7 235.52-20.55L235.52-20.55Q235.52-20.8 235.87-21.48 236.22-22.15 236.67-22.85 237.12-23.55 237.37-23.8L237.37-23.8Q238.22-24.75 238.69-25 239.17-25.25 239.57-25.25L239.57-25.25Q240.62-25.25 240.62-24.3L240.62-24.3Q240.62-23.95 240.19-23.48 239.77-23 239.22-22.6L239.22-22.6Q238.42-22.1 238.22-21.8L238.22-21.8 237.12-20.25Q237.07-20.05 236.9-19.88 236.72-19.7 236.37-19.7ZM227.87 0.55L227.87 0.55Q226.47 0.55 225.84 0 225.22-0.55 225.22-1.65L225.22-1.65Q225.22-2.7 225.87-4.53 226.52-6.35 227.55-8.45 228.57-10.55 229.72-12.45 230.87-14.35 231.94-15.58 233.02-16.8 233.67-16.8L233.67-16.8Q234.57-16.8 234.57-16L234.57-16Q234.57-15.5 233.72-14.1 232.87-12.7 231.87-11.2L231.87-11.2Q231.47-10.65 230.77-9.7 230.07-8.75 229.42-7.93 228.77-7.1 228.57-6.8L228.57-6.8Q228.07-6.05 227.52-4.35L227.52-4.35Q226.92-2.65 226.92-1.75L226.92-1.75Q226.92-1.35 227.09-1.15 227.27-0.95 227.92-0.95L227.92-0.95Q229.17-0.95 230.72-1.75 232.27-2.55 233.87-3.78 235.47-5 236.9-6.3 238.32-7.6 239.32-8.55L239.32-8.55Q239.52-8.75 239.92-8.75L239.92-8.75Q240.67-8.75 240.67-8.15L240.67-8.15Q240.67-7.6 239.97-6.9L239.97-6.9Q238.62-5.55 237.47-4.5 236.32-3.45 235.27-2.65L235.27-2.65Q233.62-1.45 231.62-0.45 229.62 0.55 227.87 0.55Z" fill="#00923f" data-fill-palette-color="primary"></path></g></svg></g></svg></g><g transform="matrix(1,0,0,1,58.663526399999995,64.64239731387072)"><svg viewBox="0 0 185.76783360000002 29.024595600336603" height="29.024595600336603" width="185.76783360000002"><g transform="matrix(1,0,0,1,0,0)"><svg width="185.76783360000002" viewBox="5.9 -39.15 356.46000000000004 55.7" height="29.024595600336603" data-palette-color="#539123"><path d="M16.95-1.95L16.95-1.95Q16.35-1.95 16.35-2.25L16.35-2.25Q16.35-2.55 16.4-2.65L16.4-2.65Q16.45-3.05 16.6-3.53 16.75-4 16.95-4.65L16.95-4.65 17.65-6.6Q18.35-9.05 18.85-11.5 19.35-13.95 19.65-16.4L19.65-16.4 13.1-16.05Q11.1-15.95 9.47-15.9 7.85-15.85 6.6-15.85L6.6-15.85Q6-15.85 6-16.7L6-16.7Q6-17.55 6.65-17.7L6.65-17.7Q7.55-17.95 19.85-18.15L19.85-18.15Q19.95-19.4 20.03-20.88 20.1-22.35 20.1-24.1L20.1-24.1 20.1-26.4Q16.3-26.3 12.88-26.23 9.45-26.15 6.4-26.15L6.4-26.15Q5.9-26.15 5.9-26.8L5.9-26.8Q5.9-27.95 6.75-27.95L6.75-27.95Q11.2-27.95 14.5-27.95 17.8-27.95 20-28L20-28Q19.95-28.5 19.83-29.5 19.7-30.5 19.45-32.05L19.45-32.05Q19.25-33.4 19.15-34.3 19.05-35.2 19.05-35.7L19.05-35.7Q19.05-36.6 20.2-36.6L20.2-36.6Q20.8-36.6 20.85-36.15L20.85-36.15Q20.95-35.4 21.05-34.4 21.15-33.4 21.2-32.1L21.2-32.1Q21.3-30.3 21.33-29.3 21.35-28.3 21.4-28.05L21.4-28.05 30.35-28.15Q30.4-30.85 30.43-32.88 30.45-34.9 30.45-36.25L30.45-36.25Q30.45-36.9 31.3-36.9L31.3-36.9Q32.1-36.9 32.1-36.3L32.1-36.3Q32.1-34.9 32.05-32.88 32-30.85 31.9-28.15L31.9-28.15Q36.2-28.2 39.43-28.23 42.65-28.25 44.8-28.25L44.8-28.25Q45.4-28.25 45.4-27.65L45.4-27.65Q45.4-27 44.8-27L44.8-27Q42.65-27 39.43-26.95 36.2-26.9 31.85-26.8L31.85-26.8 31.7-18.5 31.7-18.15Q34.45-18.1 36.58-18.07 38.7-18.05 40.2-17.95L40.2-17.95Q45.65-17.65 48.55-16.9L48.55-16.9Q49.05-16.75 49.05-16.3L49.05-16.3Q49.05-15.7 48.35-15.7L48.35-15.7Q47.15-15.7 44.95-16L44.95-16Q43.65-16.2 42.78-16.28 41.9-16.35 41.45-16.4L41.45-16.4Q37.2-16.7 31.7-16.7L31.7-16.7Q31.75-14.5 31.88-12.48 32-10.45 32.2-8.6L32.2-8.6Q32.25-8.4 32.33-7.88 32.4-7.35 32.6-6.55L32.6-6.55Q32.7-5.9 32.77-5.38 32.85-4.85 32.85-4.5L32.85-4.5Q32.85-3.75 32.25-3.75L32.25-3.75Q31.7-3.75 31.65-4.25L31.65-4.25Q30.55-7.8 30.35-16.7L30.35-16.7Q27.35-16.65 25.1-16.6 22.85-16.55 21.3-16.5L21.3-16.5Q21.15-15.1 20.73-13.08 20.3-11.05 19.6-8.4L19.6-8.4Q17.95-1.95 16.95-1.95ZM21.5-18.2L21.5-18.2 30.3-18.2 30.3-20.4Q30.3-21.7 30.3-23.28 30.3-24.85 30.35-26.75L30.35-26.75 21.5-26.45Q21.55-25.05 21.58-23.85 21.6-22.65 21.6-21.65L21.6-21.65Q21.6-20.6 21.58-19.75 21.55-18.9 21.5-18.2ZM51.1 1.55L51.1 1.55Q48.95 1.55 47.62 0.25 46.3-1.05 46.3-3.2L46.3-3.2Q46.3-4.75 46.95-6.35 47.6-7.95 48.62-9.38 49.65-10.8 50.75-11.75L50.75-11.75Q51.6-12.55 52.25-12.55L52.25-12.55Q52.9-12.55 52.9-11.9L52.9-11.9Q52.9-11.3 52.05-10.55L52.05-10.55Q50.35-9.1 49.25-7 48.15-4.9 48.15-3.1L48.15-3.1Q48.15-0.25 51.2-0.25L51.2-0.25Q53-0.25 54.82-1.45 56.65-2.65 58.45-4.63 60.25-6.6 61.92-9.05 63.6-11.5 65.1-13.95L65.1-13.95Q71.75-24.7 73.95-31.75L73.95-31.75Q73.3-31.7 71.97-31.35 70.65-31 68.65-30.35L68.65-30.35Q66.75-29.75 65.8-29.43 64.85-29.1 64.5-29.1L64.5-29.1Q63.55-29.1 63.55-29.95L63.55-29.95Q63.55-30.4 64.2-30.8L64.2-30.8Q65.25-31.45 66.97-32.02 68.7-32.6 70.9-33L70.9-33Q74.75-33.75 78.3-33.75L78.3-33.75Q79.75-33.75 81.25-33.6 82.75-33.45 83.65-33.25L83.65-33.25Q84.5-33.1 84.5-32.4L84.5-32.4Q84.5-31.65 83.8-31.65L83.8-31.65Q83.6-31.65 82.25-31.88 80.9-32.1 78.65-32.1L78.65-32.1Q77.1-32.1 75.5-31.95L75.5-31.95Q75.7-31.75 75.7-31.45L75.7-31.45Q75.7-31.3 75.52-30.83 75.35-30.35 75.2-29.95L75.2-29.95Q73.9-26.3 71.92-22.38 69.95-18.45 67.35-14.15L67.35-14.15Q65.55-11.2 63.6-8.4 61.65-5.6 59.57-3.35 57.5-1.1 55.37 0.23 53.25 1.55 51.1 1.55ZM85.45 1.7L85.45 1.7Q83 1.7 83-1.85L83-1.85Q83-3.75 83.9-6.45L83.9-6.45Q77.84 0.6 74.4 0.6L74.4 0.6Q71.55 0.6 71.55-2.85L71.55-2.85Q71.55-4.15 71.97-5.98 72.4-7.8 73.12-9.75 73.84-11.7 74.7-13.4 75.55-15.1 76.4-16.15L76.4-16.15Q76.7-16.5 77.15-16.5L77.15-16.5Q77.4-16.5 77.65-16.32 77.9-16.15 77.9-15.8L77.9-15.8Q77.9-15.5 77.55-14.95L77.55-14.95Q75.3-11.25 74.34-8.5L74.34-8.5Q73.15-5.35 73.15-3.05L73.15-3.05Q73.15-0.9 74.25-0.9L74.25-0.9Q74.95-0.9 76.09-1.6 77.25-2.3 78.47-3.33 79.7-4.35 80.59-5.25L80.59-5.25Q83.09-7.9 85.09-10.9L85.09-10.9Q86-12.3 86.72-13.63 87.45-14.95 88.05-16.4L88.05-16.4Q88.3-16.95 88.47-17.23 88.65-17.5 89-17.5L89-17.5Q90.05-17.5 90.05-16.7L90.05-16.7Q90.05-16.2 89.7-16L89.7-16Q84.59-5.65 84.59-1.75L84.59-1.75Q84.59-0.7 84.8-0.28 85 0.15 85.5 0.15L85.5 0.15Q86.2 0.15 87.67-0.75 89.15-1.65 91.15-3.5L91.15-3.5 96.4-8.3Q96.8-8.7 97.15-8.7L97.15-8.7Q97.95-8.7 97.95-7.95L97.95-7.95Q97.95-7.3 94.8-4.45L94.8-4.45Q93.45-3.2 92.4-2.35 91.34-1.5 90.45-0.85L90.45-0.85Q88.75 0.35 87.45 1.03 86.15 1.7 85.45 1.7ZM95.94 1.65L95.94 1.65Q93.14 1.65 93.14-0.2L93.14-0.2Q93.14-1.35 93.97-2.5 94.79-3.65 95.94-4.6 97.09-5.55 98.09-6.05L98.09-6.05Q98.39-6.2 98.92-6.35 99.44-6.5 99.79-6.5L99.79-6.5Q100.19-6.5 100.19-6.2L100.19-6.2Q100.19-5.95 99.64-5.65L99.64-5.65Q97.34-4.55 96.07-3.03 94.79-1.5 94.79-0.55L94.79-0.55Q94.79 0.35 96.34 0.35L96.34 0.35Q97.64 0.35 99.17-0.3 100.69-0.95 102.07-2 103.44-3.05 104.34-4.25 105.24-5.45 105.24-6.55L105.24-6.55Q105.24-7.3 104.77-7.9 104.29-8.5 103.24-8.8L103.24-8.8 99.94-9.8Q98.69-10.2 98.14-10.85 97.59-11.5 97.59-12.3L97.59-12.3Q97.59-13.8 98.72-15 99.84-16.2 101.54-16.9 103.24-17.6 104.84-17.6L104.84-17.6Q106.44-17.6 107.64-16.82 108.84-16.05 108.84-14.75L108.84-14.75Q108.84-14 108.42-13.35 107.99-12.7 107.44-12.7L107.44-12.7Q106.59-12.7 106.59-13.4L106.59-13.4Q106.59-13.65 106.87-14.03 107.14-14.4 107.14-14.75L107.14-14.75Q107.14-16.25 104.84-16.25L104.84-16.25Q103.59-16.25 102.37-15.73 101.14-15.2 100.34-14.35 99.54-13.5 99.54-12.5L99.54-12.5Q99.54-11.5 101.54-10.9L101.54-10.9 104.74-9.9Q106.19-9.45 106.74-8.68 107.29-7.9 107.29-6.95L107.29-6.95Q107.29-4.7 104.54-2.3L104.54-2.3Q100.09 1.65 95.94 1.65ZM110.49 3.45L110.49 3.45Q109.54 3.45 109.54 1.95L109.54 1.95Q109.54-0.25 112.02-5.75 114.49-11.25 119.39-20.15L119.39-20.15Q117.49-20.15 115.82-19.68 114.14-19.2 114.04-18.5L114.04-18.5Q113.99-18.3 113.82-18.13 113.64-17.95 113.29-17.95L113.29-17.95Q112.49-17.95 112.49-18.75L112.49-18.75Q112.49-20.05 114.54-20.9 116.59-21.75 120.29-21.75L120.29-21.75 123.74-27.45Q124.09-28 124.49-28.68 124.89-29.35 125.39-30.15L125.39-30.15Q125.89-30.85 126.54-30.85L126.54-30.85Q126.94-30.85 127.14-30.63 127.34-30.4 127.34-30.15L127.34-30.15Q127.34-29.4 125.14-26.15L125.14-26.15Q122.39-22.1 122.19-21.75L122.19-21.75Q122.94-21.75 124.44-21.63 125.94-21.5 127.99-21.25L127.99-21.25Q128.74-21.2 128.74-20.5L128.74-20.5Q128.74-19.7 127.84-19.7L127.84-19.7Q127.49-19.7 126.44-19.83 125.39-19.95 124.19-20.05 122.99-20.15 122.14-20.1L122.14-20.1 121.39-20.05Q111.24-2.2 111.29 2.15L111.29 2.15 111.34 2.55 111.34 2.65Q111.34 3.45 110.49 3.45ZM121.39 1.55L121.39 1.55Q120.54 1.55 120.54 0.3L120.54 0.3Q120.54-1.6 122.44-6.23 124.34-10.85 128.19-18.1L128.19-18.1Q130.39-22.2 131.79-24.9 133.19-27.6 133.99-29.23 134.79-30.85 135.14-31.68 135.49-32.5 135.54-32.9L135.54-32.9Q135.54-33.1 135.64-33.2L135.64-33.2 133.69-33.3Q133.04-33.35 132.71-33.65 132.39-33.95 132.39-34.3L132.39-34.3Q132.39-35 133.19-35L133.19-35Q144.09-35 152.09-30.5L152.09-30.5Q156.24-28.15 158.94-24.63 161.64-21.1 161.64-16.65L161.64-16.65Q161.64-13.05 159.64-10.45 157.64-7.85 154.21-5.95 150.79-4.05 146.49-2.55L146.49-2.55Q143.59-1.55 140.04-0.63 136.49 0.3 133.09 0.85 129.69 1.4 127.09 1.4L127.09 1.4Q125.29 1.4 124.29 0.9L124.29 0.9Q123.24 0.35 123.24-0.3L123.24-0.3Q123.24-0.85 123.84-0.85L123.84-0.85Q124.24-0.85 124.59-0.7 124.94-0.55 125.59-0.4 126.24-0.25 127.49-0.25L127.49-0.25Q129.29-0.25 131.56-0.58 133.84-0.9 136.31-1.45 138.79-2 141.14-2.68 143.49-3.35 145.44-4L145.44-4Q149.64-5.45 152.91-7.2 156.19-8.95 158.04-11.35 159.89-13.75 159.89-17.15L159.89-17.15Q159.89-24.3 151.54-29.05L151.54-29.05Q145.99-32.15 137.09-33.1L137.09-33.1Q137.29-32.85 137.29-32.55L137.29-32.55Q137.29-32.1 136.56-30.5 135.84-28.9 134.66-26.65 133.49-24.4 132.19-21.9 130.89-19.4 129.69-17.2L129.69-17.2Q122.14-2.75 122.14 0.2L122.14 0.2Q122.14 0.4 122.16 0.5 122.19 0.6 122.19 0.8L122.19 0.8Q122.19 1.05 121.99 1.3 121.79 1.55 121.39 1.55ZM174.64-19.7L174.64-19.7Q173.79-19.7 173.79-20.55L173.79-20.55Q173.79-20.8 174.14-21.48 174.49-22.15 174.94-22.85 175.39-23.55 175.64-23.8L175.64-23.8Q176.49-24.75 176.96-25 177.44-25.25 177.84-25.25L177.84-25.25Q178.89-25.25 178.89-24.3L178.89-24.3Q178.89-23.95 178.46-23.48 178.04-23 177.49-22.6L177.49-22.6Q176.69-22.1 176.49-21.8L176.49-21.8 175.39-20.25Q175.34-20.05 175.16-19.88 174.99-19.7 174.64-19.7ZM166.14 0.55L166.14 0.55Q164.74 0.55 164.11 0 163.49-0.55 163.49-1.65L163.49-1.65Q163.49-2.7 164.14-4.53 164.79-6.35 165.81-8.45 166.84-10.55 167.99-12.45 169.14-14.35 170.21-15.58 171.29-16.8 171.94-16.8L171.94-16.8Q172.84-16.8 172.84-16L172.84-16Q172.84-15.5 171.99-14.1 171.14-12.7 170.14-11.2L170.14-11.2Q169.74-10.65 169.04-9.7 168.34-8.75 167.69-7.93 167.04-7.1 166.84-6.8L166.84-6.8Q166.34-6.05 165.79-4.35L165.79-4.35Q165.19-2.65 165.19-1.75L165.19-1.75Q165.19-1.35 165.36-1.15 165.54-0.95 166.19-0.95L166.19-0.95Q167.44-0.95 168.99-1.75 170.54-2.55 172.14-3.78 173.74-5 175.16-6.3 176.59-7.6 177.59-8.55L177.59-8.55Q177.79-8.75 178.19-8.75L178.19-8.75Q178.94-8.75 178.94-8.15L178.94-8.15Q178.94-7.6 178.24-6.9L178.24-6.9Q176.89-5.55 175.74-4.5 174.59-3.45 173.54-2.65L173.54-2.65Q171.89-1.45 169.89-0.45 167.89 0.55 166.14 0.55ZM181.53 1.35L181.53 1.35Q179.23 1.35 178.01-0.08 176.78-1.5 176.78-3.85L176.78-3.85Q176.78-5.55 177.38-7.95L177.38-7.95Q178.43-12 180.93-17.35L180.93-17.35Q182.88-21.4 185.13-25.33 187.38-29.25 190.08-33.05L190.08-33.05Q194.38-39.15 196.08-39.15L196.08-39.15Q197.18-39.15 197.18-38.55L197.18-38.55Q197.18-37.7 194.38-34.3L194.38-34.3 190.88-30.05Q186.33-24.55 183.46-18.8 180.58-13.05 178.98-7.3L178.98-7.3Q178.53-5.65 178.53-4.2L178.53-4.2Q178.53-0.4 181.63-0.4L181.63-0.4Q182.73-0.4 183.88-1.05L183.88-1.05Q185.03-1.65 185.13-1.65L185.13-1.65Q185.73-1.65 185.73-0.8L185.73-0.8Q185.73-0.05 185.18 0.35L185.18 0.35Q183.48 1.35 181.53 1.35ZM198.43 2.15L198.43 2.15Q195.23 2.15 192.41 1.1 189.58 0.05 187.83-1.9 186.08-3.85 186.08-6.5L186.08-6.5Q186.08-7.35 186.38-8.3L186.38-8.3Q186.78-9.6 187.28-9.6L187.28-9.6Q188.03-9.6 188.03-8.75L188.03-8.75Q188.03-8.4 187.83-7.8L187.83-7.8Q187.63-7.2 187.63-6.65L187.63-6.65Q187.63-4.45 189.13-2.83 190.63-1.2 193.01-0.35 195.38 0.5 197.98 0.5L197.98 0.5Q203.63 0.5 207.58-2.2L207.58-2.2Q209.63-3.6 210.98-5.58 212.33-7.55 212.33-9.8L212.33-9.8Q212.33-11.85 211.31-13.2 210.28-14.55 208.48-15.53 206.68-16.5 204.33-17.3L204.33-17.3Q197.63-19.65 197.63-23L197.63-23Q197.63-24.8 198.98-26.45 200.33-28.1 202.28-29.38 204.23-30.65 206.03-31.3L206.03-31.3Q208.68-32.3 210.96-32.68 213.23-33.05 215.18-33.05L215.18-33.05Q217.83-33.05 218.93-31.83 220.03-30.6 220.03-28.8L220.03-28.8Q220.03-27.4 219.36-26.1 218.68-24.8 217.53-23.85L217.53-23.85Q216.23-22.75 215.43-22.75L215.43-22.75Q214.58-22.75 214.58-23.55L214.58-23.55Q214.58-24 215.03-24.2L215.03-24.2Q218.38-25.9 218.38-28.85L218.38-28.85Q218.38-30.15 217.66-30.78 216.93-31.4 215.18-31.4L215.18-31.4Q213.58-31.4 211.61-31.05 209.63-30.7 207.58-30L207.58-30Q205.78-29.35 203.93-28.25 202.08-27.15 200.86-25.85 199.63-24.55 199.63-23.25L199.63-23.25Q199.63-20.5 204.93-18.85L204.93-18.85Q214.08-15.95 214.08-9.95L214.08-9.95Q214.08-8.15 213.26-6.4 212.43-4.65 211.11-3.2 209.78-1.75 208.28-0.7L208.28-0.7Q206.13 0.8 203.61 1.48 201.08 2.15 198.43 2.15ZM222.28 0.9L222.28 0.9Q220.18 0.9 218.98-0.55 217.78-2 217.78-4.1L217.78-4.1Q217.78-7.7 220.18-11.5L220.18-11.5Q220.83-12.55 221.68-13.58 222.53-14.6 223.53-15.55L223.53-15.55Q225.03-17 226.68-17.95 228.33-18.9 229.88-18.9L229.88-18.9Q232.43-18.9 232.43-16.5L232.43-16.5Q232.43-13.5 228.93-11.05L228.93-11.05Q225.68-8.85 222.53-8.85L222.53-8.85Q221.98-8.85 221.55-8.93 221.13-9 220.78-9.1L220.78-9.1Q220.28-8.15 219.88-6.65 219.48-5.15 219.48-4.05L219.48-4.05Q219.48-0.75 222.38-0.75L222.38-0.75Q224.73-0.75 226.83-1.58 228.93-2.4 231.83-4.7L231.83-4.7Q233.63-6.1 234.53-6.95 235.43-7.8 236.48-8.75L236.48-8.75Q236.78-8.95 237.03-8.95L237.03-8.95Q237.28-8.95 237.53-8.8 237.78-8.65 237.78-8.35L237.78-8.35Q237.78-7.8 236.78-6.8L236.78-6.8Q235.93-6 234.98-5.13 234.03-4.25 231.98-2.7L231.98-2.7Q229.78-1 227.18-0.05 224.58 0.9 222.28 0.9ZM222.23-10.45L222.23-10.45Q223.83-10.45 225.28-10.95 226.73-11.45 228.03-12.4L228.03-12.4Q230.93-14.55 230.93-16.45L230.93-16.45Q230.93-17.3 229.88-17.3L229.88-17.3Q227.88-17.3 225.23-14.85L225.23-14.85Q223.93-13.65 223.1-12.68 222.28-11.7 221.58-10.55L221.58-10.55Q221.88-10.45 222.23-10.45ZM244.58 2.15L244.58 2.15Q241.38 2.15 238.55 1.1 235.73 0.05 233.98-1.9 232.23-3.85 232.23-6.5L232.23-6.5Q232.23-7.35 232.53-8.3L232.53-8.3Q232.93-9.6 233.43-9.6L233.43-9.6Q234.18-9.6 234.18-8.75L234.18-8.75Q234.18-8.4 233.98-7.8L233.98-7.8Q233.78-7.2 233.78-6.65L233.78-6.65Q233.78-4.45 235.28-2.83 236.78-1.2 239.15-0.35 241.53 0.5 244.13 0.5L244.13 0.5Q249.78 0.5 253.73-2.2L253.73-2.2Q255.78-3.6 257.13-5.58 258.48-7.55 258.48-9.8L258.48-9.8Q258.48-11.85 257.45-13.2 256.43-14.55 254.63-15.53 252.83-16.5 250.48-17.3L250.48-17.3Q243.78-19.65 243.78-23L243.78-23Q243.78-24.8 245.13-26.45 246.48-28.1 248.43-29.38 250.38-30.65 252.18-31.3L252.18-31.3Q254.83-32.3 257.1-32.68 259.38-33.05 261.33-33.05L261.33-33.05Q263.98-33.05 265.08-31.83 266.18-30.6 266.18-28.8L266.18-28.8Q266.18-27.4 265.5-26.1 264.83-24.8 263.68-23.85L263.68-23.85Q262.38-22.75 261.58-22.75L261.58-22.75Q260.73-22.75 260.73-23.55L260.73-23.55Q260.73-24 261.18-24.2L261.18-24.2Q264.53-25.9 264.53-28.85L264.53-28.85Q264.53-30.15 263.8-30.78 263.08-31.4 261.33-31.4L261.33-31.4Q259.73-31.4 257.75-31.05 255.78-30.7 253.73-30L253.73-30Q251.93-29.35 250.08-28.25 248.23-27.15 247-25.85 245.78-24.55 245.78-23.25L245.78-23.25Q245.78-20.5 251.08-18.85L251.08-18.85Q260.23-15.95 260.23-9.95L260.23-9.95Q260.23-8.15 259.4-6.4 258.58-4.65 257.25-3.2 255.93-1.75 254.43-0.7L254.43-0.7Q252.28 0.8 249.75 1.48 247.23 2.15 244.58 2.15ZM264.82 0.9L264.82 0.9Q264.02 0.9 264.02 0.1L264.02 0.1Q264.02-0.95 264.77-3.23 265.52-5.5 266.75-8.47 267.97-11.45 269.37-14.6L269.37-14.6Q270.17-16.35 271.02-18.03 271.87-19.7 272.62-20.95L272.62-20.95Q280.02-33.45 281.82-33.45L281.82-33.45Q282.52-33.45 282.52-32.75L282.52-32.75Q282.52-32.3 281.85-31.08 281.17-29.85 280.1-28.23 279.02-26.6 277.8-24.95 276.57-23.3 275.5-21.93 274.42-20.55 273.77-19.85L273.77-19.85Q273.22-19.2 272.55-17.95 271.87-16.7 271.22-15.38 270.57-14.05 270.17-13.05L270.17-13.05 268.27-8.35Q269.02-9.35 270.22-10.6L270.22-10.6Q273.07-13.75 276.15-15.38 279.22-17 281.32-17L281.32-17Q282.47-17 283.17-16.3 283.87-15.6 283.87-14.6L283.87-14.6Q283.87-12.65 281.32-8.05L281.32-8.05Q278.77-3.5 278.77-2.45L278.77-2.45Q278.77-1.9 279.37-1.9L279.37-1.9Q280.77-1.9 282.42-2.93 284.07-3.95 285.82-5.55 287.57-7.15 289.22-8.75L289.22-8.75Q289.42-8.95 289.82-8.95L289.82-8.95Q290.57-8.95 290.57-8.35L290.57-8.35Q290.57-7.8 289.87-7.1L289.87-7.1Q286.52-3.75 284.12-2.1 281.72-0.45 279.07-0.45L279.07-0.45Q277.07-0.45 277.07-2.3L277.07-2.3Q277.07-3 277.32-3.65 277.57-4.3 278.12-5.4L278.12-5.4 280.42-9.95Q281.27-11.65 281.67-12.8 282.07-13.95 282.07-14.55L282.07-14.55Q282.07-15.4 281.02-15.4L281.02-15.4Q279.17-15.4 276.7-13.93 274.22-12.45 271.42-9.5L271.42-9.5Q269.82-7.8 268.55-5.9 267.27-4 266.52-1.8L266.52-1.8 265.92-0.05Q265.57 0.9 264.82 0.9ZM289.72 0.5L289.72 0.5Q286.82 0.5 286.82-2.25L286.82-2.25Q286.82-4.05 287.69-6.13 288.57-8.2 290.07-10.18 291.57-12.15 293.42-13.78 295.27-15.4 297.22-16.38 299.17-17.35 300.97-17.35L300.97-17.35Q304.17-17.35 304.17-14.2L304.17-14.2Q304.17-12.15 303.17-12.15L303.17-12.15Q302.27-12.15 302.27-13L302.27-13Q302.27-13.35 302.44-13.73 302.62-14.1 302.62-14.55L302.62-14.55Q302.62-15.95 300.72-15.95L300.72-15.95Q297.67-15.95 293.07-11.3L293.07-11.3Q291.97-10.15 290.92-8.6 289.87-7.05 289.19-5.48 288.52-3.9 288.52-2.5L288.52-2.5Q288.52-1.15 290.02-1.15L290.02-1.15Q291.32-1.15 292.8-1.95 294.27-2.75 295.37-3.6L295.37-3.6Q297.57-5.25 299.87-8.1L299.87-8.1Q300.22-8.5 300.77-9.15 301.32-9.8 302.02-10.6L302.02-10.6Q302.27-10.85 302.62-10.85L302.62-10.85Q303.42-10.85 303.42-10.05L303.42-10.05 301.52-7.2Q299.62-4.4 299.62-2.6L299.62-2.6Q299.62-1.3 300.87-1.3L300.87-1.3Q301.92-1.3 303.17-1.85 304.42-2.4 305.22-2.95L305.22-2.95Q306.82-4 308.57-5.58 310.32-7.15 311.92-8.75L311.92-8.75Q312.12-8.95 312.52-8.95L312.52-8.95Q313.27-8.95 313.27-8.35L313.27-8.35Q313.27-7.8 312.57-7.1L312.57-7.1Q310.57-5.1 308.97-3.68 307.37-2.25 305.92-1.35L305.92-1.35Q304.97-0.8 303.57-0.2 302.17 0.4 300.37 0.4L300.37 0.4Q297.92 0.4 297.92-2.2L297.92-2.2Q297.92-3.2 298.17-3.85L298.17-3.85Q293.62 0.5 289.72 0.5ZM309.57 16.55L309.57 16.55Q306.52 16.55 306.52 12.95L306.52 12.95Q306.52 9.9 307.82 7.05L307.82 7.05Q308.02 6.55 308.47 6.55L308.47 6.55Q309.37 6.55 309.37 7.35L309.37 7.35Q309.37 7.55 309.24 7.88 309.12 8.2 308.97 8.6L308.97 8.6Q308.62 9.55 308.42 10.6 308.22 11.65 308.22 12.8L308.22 12.8Q308.22 14.1 308.57 14.55 308.92 15 309.47 15L309.47 15Q310.77 15 312.54 13.8 314.32 12.6 316.22 10L316.22 10Q317.57 8.15 319.02 5.6 320.47 3.05 322.12-0.25L322.12-0.25Q324.32-4.6 326.17-9.1L326.17-9.1Q324.92-7.5 323.57-6 322.22-4.5 320.67-3.2L320.67-3.2Q316.52 0.35 313.77 0.35L313.77 0.35Q310.47 0.35 310.47-3.45L310.47-3.45Q310.47-4.8 310.99-6.7 311.52-8.6 312.47-11.05L312.47-11.05Q312.62-11.45 312.62-11.73 312.62-12 312.77-12.3L312.77-12.3Q313.57-14.05 315.42-16.2L315.42-16.2Q315.82-16.65 316.12-16.65L316.12-16.65Q316.87-16.65 316.87-15.55L316.87-15.55Q312.02-8.4 312.02-3.45L312.02-3.45Q312.02-1.35 313.67-1.35L313.67-1.35Q315.52-1.35 318.82-3.9L318.82-3.9Q321.17-5.7 323.17-7.98 325.17-10.25 326.77-12.7L326.77-12.7Q327.87-14.35 328.54-15.63 329.22-16.9 329.37-17.35L329.37-17.35Q329.62-18.1 330.07-18.1L330.07-18.1Q331.02-18.1 331.02-17.3L331.02-17.3Q331.02-16.9 330.64-15.88 330.27-14.85 329.72-13.45L329.72-13.45Q328.92-11.4 327.42-7.95 325.92-4.5 323.67 0.25L323.67 0.25Q320.87 6.15 318.17 9.9L318.17 9.9Q316.17 12.75 313.79 14.65 311.42 16.55 309.57 16.55ZM329.51 1.25L329.51 1.25Q328.71 1.25 328.71 0.6L328.71 0.6Q328.71 0.3 328.89 0 329.06-0.3 329.16-0.5L329.16-0.5 333.71-9.7Q336.62-15.6 336.62-16.25L336.62-16.25Q336.62-16.95 337.31-16.95L337.31-16.95Q338.26-16.95 338.26-16L338.26-16Q338.26-15.5 337.81-14.4 337.37-13.3 336.66-11.85L336.66-11.85Q335.46-9.25 334.66-7.85L334.66-7.85Q336.16-9.6 337.71-11.15 339.26-12.7 340.87-14.1L340.87-14.1Q345.62-18.25 348.16-18.25L348.16-18.25Q349.91-18.25 349.91-16.6L349.91-16.6Q349.91-15 348.87-15L348.87-15Q348.37-15 348.12-15.85L348.12-15.85Q347.96-16.45 347.41-16.45L347.41-16.45Q346.56-16.45 344.12-14.6L344.12-14.6Q341.41-12.6 338.69-9.85 335.96-7.1 332.91-2.85L332.91-2.85 330.41 0.65Q330.21 0.9 330.04 1.07 329.87 1.25 329.51 1.25ZM358.06-19.7L358.06-19.7Q357.21-19.7 357.21-20.55L357.21-20.55Q357.21-20.8 357.56-21.48 357.91-22.15 358.36-22.85 358.81-23.55 359.06-23.8L359.06-23.8Q359.91-24.75 360.39-25 360.86-25.25 361.26-25.25L361.26-25.25Q362.31-25.25 362.31-24.3L362.31-24.3Q362.31-23.95 361.89-23.48 361.46-23 360.91-22.6L360.91-22.6Q360.11-22.1 359.91-21.8L359.91-21.8 358.81-20.25Q358.76-20.05 358.59-19.88 358.41-19.7 358.06-19.7ZM349.56 0.55L349.56 0.55Q348.16 0.55 347.54 0 346.91-0.55 346.91-1.65L346.91-1.65Q346.91-2.7 347.56-4.53 348.21-6.35 349.24-8.45 350.26-10.55 351.41-12.45 352.56-14.35 353.64-15.58 354.71-16.8 355.36-16.8L355.36-16.8Q356.26-16.8 356.26-16L356.26-16Q356.26-15.5 355.41-14.1 354.56-12.7 353.56-11.2L353.56-11.2Q353.16-10.65 352.46-9.7 351.76-8.75 351.11-7.93 350.46-7.1 350.26-6.8L350.26-6.8Q349.76-6.05 349.21-4.35L349.21-4.35Q348.61-2.65 348.61-1.75L348.61-1.75Q348.61-1.35 348.79-1.15 348.96-0.95 349.61-0.95L349.61-0.95Q350.86-0.95 352.41-1.75 353.96-2.55 355.56-3.78 357.16-5 358.59-6.3 360.01-7.6 361.01-8.55L361.01-8.55Q361.21-8.75 361.61-8.75L361.61-8.75Q362.36-8.75 362.36-8.15L362.36-8.15Q362.36-7.6 361.66-6.9L361.66-6.9Q360.31-5.55 359.16-4.5 358.01-3.45 356.96-2.65L356.96-2.65Q355.31-1.45 353.31-0.45 351.31 0.55 349.56 0.55Z" opacity="1" transform="matrix(1,0,0,1,0,0)" fill="#539123" class="slogan-text-1" data-fill-palette-color="secondary" id="text-1"></path></svg></g></svg></g></svg></g></svg></g><g transform="matrix(1,0,0,1,256.7772987515568,5.410205510724616)"><svg viewBox="0 0 37.36929983829305 82.8465818927581" height="82.8465818927581" width="37.36929983829305"><g><svg xmlns="http://www.w3.org/2000/svg" xmlns:xlink="http://www.w3.org/1999/xlink" version="1.1" x="0" y="0" viewBox="29.756378281882117 5.000387316982365 40.488131819027686 89.76093592721375" enable-background="new 0 0 100 100" xml:space="preserve" height="82.8465818927581" width="37.36929983829305" class="icon-icon-0" data-fill-palette-color="accent" id="icon-0"><path d="M53.823 25.983c0.748-0.945 1.508-1.881 2.283-2.807 0.17-0.206 0.245-0.161 0.079 0.056-0.802 1.054-1.574 2.129-2.326 3.22l-0.597 0.91c-0.342 0.509-0.655 1.037-0.986 1.553l-0.658 1.036c-0.449 0.718-0.887 1.443-1.326 2.168l-0.543 0.889c-0.572 0.965-1.128 1.94-1.667 2.922l-0.52 0.965c-1.286 2.387-2.508 4.807-3.665 7.259-3.444 7.299-6.226 14.925-8.187 22.757-0.547 2.186-1.036 4.384-1.455 6.598-0.565 2.974-1.011 5.971-1.331 8.979-0.328 3.095-0.294 6.339 0.67 9.325 0.307 0.954 0.725 1.848 1.209 2.705 0.228 0.408 0.594 0.267 0.448-0.157-0.848-2.482-1.112-5.282-0.61-7.654 0.431-2.036 1.435-3.888 2.542-5.632 0.241-0.32 0.532-0.619 0.792-0.957 0.331-0.389 0.654-0.803 1.041-1.174 0.372-0.385 0.75-0.771 1.129-1.161 0.817-0.715 1.598-1.475 2.424-2.081 0.412-0.301 0.771-0.659 1.166-0.907 0.386-0.262 0.744-0.528 1.078-0.774 0.66-0.499 1.284-0.848 1.677-1.141 0.129-0.094 0.24-0.172 0.332-0.237 0.193-0.14 0.181-0.177-0.035-0.108-0.111 0.036-0.247 0.077-0.406 0.129-0.461 0.174-1.139 0.352-1.898 0.739-0.383 0.185-0.8 0.389-1.234 0.62-0.449 0.211-0.862 0.515-1.311 0.806-0.146 0.103-0.298 0.198-0.45 0.301-0.069 0.045-0.104 0.002-0.053-0.063 1.079-1.409 2.171-2.806 3.25-4.215 1.081-1.422 2.139-2.861 3.163-4.326 3.46-4.537 6.529-12.121 9.972-16.204 0.085-0.102 0.101-0.19-0.091-0.066-0.803 0.519-2.831 1.807-4.573 3.085-1.507 1.114-2.751 2.243-3.22 2.626-0.105 0.088-0.109 0.013-0.049-0.071 0.672-0.928 2.889-3.469 7.329-7.56 1.04-0.96 1.958-2.149 2.505-3.477 0.065-0.157 0.021-0.216-0.07-0.092-1.051 1.393-2.621 2.328-4.157 3.102-0.106 0.054-0.14 0.022-0.049-0.05 3.472-2.744 5.914-7.258 7.693-11.741 1.972-4.972 3.428-10.21 4.71-15.396 0.524-2.116 1.009-4.238 1.44-6.375 0.323-1.596 0.618-3.196 0.872-4.806 0.037-0.219 0.064-0.479 0.084-0.76 0.011-0.2-0.157-0.358-0.398-0.199-0.384 0.255-0.947 0.526-1.312 0.691-0.214 0.096-0.146 0.017-0.039-0.064 0.642-0.486 1.27-1.222 1.494-1.955 0.236-0.787-0.307-1.737-1.021-2.031-1.357-0.559-3.038 0.273-4.139 1.046-0.339 0.237-0.666 0.505-0.967 0.788-0.516 0.484-0.959 1.028-1.347 1.618-0.023 0.036-0.036 0.076-0.032-0.009 0.012-0.232 0.067-0.73 0.334-1.205 0.025-0.047 0-0.093-0.043-0.068-1.859 1.064-3.699 2.192-5.465 3.444-2.061 1.46-4.081 2.991-5.941 4.702-0.526 0.486-1.041 0.983-1.541 1.499-0.351 0.364-0.693 0.736-1.027 1.115-0.169 0.194-0.338 0.39-0.504 0.586-0.138 0.165-0.434 0.409-0.502 0.612 0.312-0.925 0.438-1.928 0.222-2.885-0.091-0.399-0.18-0.17-0.189 0.007-0.126 2.219-1.422 4.284-2.435 6.198-0.292 0.552-0.58 1.106-0.841 1.674-0.685 1.487-1.295 3.024-1.662 4.625-0.036 0.155-0.077 0.274-0.115 0.251-0.021-0.014-0.041-0.072-0.058-0.196-0.046-0.35-0.024-0.713-0.013-1.065 0.026-0.84 0.108-1.659 0.288-2.481 0.088-0.406 0.204-0.804 0.352-1.192 0.039-0.102-0.022-0.125-0.093-0.036-1.054 1.308-2.065 2.647-2.997 4.039-3.964 5.929-6.85 12.6-8.582 19.513-0.508 2.022-0.899 4.073-1.097 6.151-0.119 1.247-0.159 3.043 0.923 3.924 0.041 0.033 0.073 0.074-0.017 0.033-0.281-0.136-0.899-0.47-1.211-0.946-0.017-0.024-0.056-0.009-0.059 0.024-0.528 4.827-0.604 9.692-0.181 14.589 0.21 2.432 0.511 4.854 0.879 7.27 0.164 1.064 0.393 2.122 0.611 3.177 0.162 0.78 0.315 0.751 0.375-0.05 0.084-1.124 0.286-2.253 0.442-3.353 0.292-2.052 0.604-4.104 0.959-6.146 1.158-6.669 2.883-13.271 5.313-19.59 2.318-6.036 5.171-11.918 8.578-17.419l0.585-0.889c0.553-0.865 1.108-1.728 1.692-2.574l0.599-0.84c0.482-0.685 0.958-1.37 1.453-2.044l0.682-0.925c0.336-0.446 0.651-0.91 0.995-1.35L53.823 25.983z" fill="#237d00" data-fill-palette-color="accent"></path></svg></g></svg></g></svg></g></svg></g></svg></g><g><path d="M245.816 0c68.262 0 123.6 55.338 123.6 123.6 0 68.262-55.338 123.6-123.6 123.6-52.746 0-97.775-33.04-115.521-79.552l2.1 0c17.647 45.407 61.775 77.593 113.421 77.592 67.18 0 121.64-54.46 121.64-121.64 0-67.18-54.46-121.64-121.64-121.64-51.645 0-95.774 32.186-113.421 77.592l-2.1 0c17.745-46.513 62.775-79.552 115.521-79.552z" fill="#007e02" stroke="transparent" data-fill-palette-color="tertiary"></path></g></svg></g><defs></defs></svg><rect width="395.52" height="247.2" fill="none" stroke="none" visibility="hidden"></rect></g></svg></g></svg>